<svg width="24" height="24" viewBox="0 0 24 24" fill="none" xmlns="http://www.w3.org/2000/svg">
<path fill-rule="evenodd" clip-rule="evenodd" d="M3.25 5C3.25 2.92893 4.92893 1.25 7 1.25H17C19.0711 1.25 20.75 2.92893 20.75 5V12.1439C19.3972 10.8177 17.5441 10 15.5 10C11.3579 10 8 13.3579 8 17.5C8 19.5441 8.81774 21.3972 10.1439 22.75H7C4.92893 22.75 3.25 21.0711 3.25 19V5ZM9.25 5C9.25 4.58579 9.58579 4.25 10 4.25H14C14.4142 4.25 14.75 4.58579 14.75 5C14.75 5.41421 14.4142 5.75 14 5.75H10C9.58579 5.75 9.25 5.41421 9.25 5Z" fill="#00FFF0"/>
<path fill-rule="evenodd" clip-rule="evenodd" d="M12.4667 12.5498C11.2424 12.5498 10.25 13.6071 10.25 14.9112V15.2707H20.75V14.9112C20.75 13.6071 19.7576 12.5498 18.5333 12.5498H12.4667ZM20.75 16.7707H10.25V18.8884C10.25 20.1926 11.2424 21.2498 12.4667 21.2498H18.5333C19.7576 21.2498 20.75 20.1926 20.75 18.8884V16.7707Z" fill="#00FFF0"/>
</svg>
