<?xml version="1.0" encoding="utf-8"?>
<!-- Generator: Adobe Illustrator 27.7.0, SVG Export Plug-In . SVG Version: 6.00 Build 0)  -->
<svg version="1.1" id="Layer_2_00000047764717840217133120000011769875464314978176_"
	 xmlns="http://www.w3.org/2000/svg" xmlns:xlink="http://www.w3.org/1999/xlink" x="0px" y="0px" viewBox="0 0 2555.4 680.1"
	 style="enable-background:new 0 0 2555.4 680.1;" xml:space="preserve">
<style type="text/css">
	.st0{fill:#213147;}
	.st1{fill:#FF00FF;}
	.st2{fill:#F200F9;}
	.st3{fill:#FFFFFF;}
	.st4{fill:#F800FF;}
</style>
<g id="Layer_x0020_1">
	<g id="_2405611885616">
		<g>
			<g>
				<path class="st0" d="M50.8,209.1v249.6c0,15.3,8.9,30.6,21.7,38.2L289,621.7c14,7.6,30.6,7.6,44.6,0l216.5-124.8
					c14-7.6,21.7-22.9,21.7-38.2V209.1c0-15.3-8.9-30.6-21.7-38.2L333.5,46.1c-14-7.6-30.6-7.6-44.6,0L72.4,170.9
					C58.4,178.5,50.8,193.8,50.8,209.1z"/>
				<g>
					<g>
						<g>
							<path class="st1" d="M359,382.3l-30.6,84.1c-1.3,2.5-1.3,5.1,0,7.6l53.5,145.2l61.1-35.7l-73.9-201.2
								C367.9,377.2,361.5,377.2,359,382.3z"/>
						</g>
						<g>
							<path class="st1" d="M420.1,239.7c-1.3-5.1-7.6-5.1-10.2,0l-30.6,84.1c-1.3,2.5-1.3,5.1,0,7.6l86.6,238.2l61.1-35.7
								L420.1,239.7z"/>
						</g>
					</g>
				</g>
				<g>
					<path class="st2" d="M310.6,55c1.3,0,2.5,0,3.8,1.3l234.3,135c2.5,1.3,3.8,3.8,3.8,7.6v270c0,2.5-1.3,6.4-3.8,7.6l-234.3,135
						c-1.3,1.3-2.5,1.3-3.8,1.3s-2.5,0-3.8-1.3l-234.3-135c-2.5-1.3-3.8-3.8-3.8-7.6v-270c0-2.5,1.3-6.4,3.8-7.6l234.3-135
						C308,55,309.3,55,310.6,55L310.6,55z M310.6,15.5c-8.9,0-16.6,2.5-24.2,6.4l-234.3,135c-15.3,8.9-24.2,24.2-24.2,42v270
						c0,16.6,8.9,33.1,24.2,42l234.3,135c7.6,3.8,15.3,6.4,24.2,6.4c8.9,0,16.6-2.5,24.2-6.4l234.3-135c15.3-8.9,24.2-24.2,24.2-42
						v-270c0-16.6-8.9-33.1-24.2-42L336,21.9c-7.6-3.8-15.3-6.4-24.2-6.4l0,0H310.6z"/>
				</g>
				<polygon class="st0" points="156.5,569.5 178.1,510.9 221.4,546.6 180.7,584.8 				"/>
				<g>
					<path class="st1" d="M291.5,179.8h-59.9c-3.8,0-8.9,2.5-10.2,6.4L94.1,535.1l61.1,35.7l140.1-383.4c1.3-3.8-1.3-7.6-5.1-7.6
						L291.5,179.8L291.5,179.8z"/>
					<path class="st1" d="M394.6,179.8h-59.9c-3.8,0-8.9,2.5-10.2,6.4L179.4,583.5l61.1,35.7l157.9-433c1.3-3.8-1.3-7.6-5.1-7.6
						L394.6,179.8z"/>
				</g>
			</g>
			<g>
				<g>
					<path class="st3" d="M845.5,252.4c6.4,0,11.5,1.3,15.3,3.8c3.8,2.5,7.6,7.6,11.5,14L950,410.3c1.3,1.3,1.3,2.5,0,3.8
						c0,1.3-1.3,1.3-3.8,1.3h-29.3c-2.5,0-3.8-1.3-5.1-2.5l-16.7-30.6H785.6L769,412.9c-1.3,2.5-2.5,2.5-5.1,2.5h-30.6
						c-2.5,0-3.8,0-3.8-1.3s0-2.5,0-3.8l76.4-140.1c3.8-7.6,7.6-11.5,11.5-14s7.6-3.8,12.7-3.8h14L845.5,252.4L845.5,252.4z
						 M799.6,355.6h80.2l-36.9-68.8c-1.3-1.3-1.3-1.3-2.5-1.3h-1.3c-1.3,0-2.5,0-2.5,1.3L799.6,355.6z"/>
					<path class="st3" d="M1119.3,252.4c17.8,0,30.6,3.8,38.2,12.7c7.6,7.6,11.5,20.4,11.5,35.7v12.7c0,14-2.5,24.2-7.6,31.8
						s-14,12.7-26.7,15.3l39.5,49.7c1.3,1.3,1.3,2.5,1.3,3.8s-1.3,2.5-3.8,2.5h-30.6c-2.5,0-3.8,0-3.8-1.3c-1.3,0-1.3-1.3-2.5-2.5
						l-36.9-48.4h-75.1v47.1c0,3.8-1.3,5.1-5.1,5.1h-25.5c-3.8,0-5.1-1.3-5.1-5.1V260c0-5.1,2.5-7.6,7.6-7.6h126.1l0,0H1119.3z
						 M1022.5,336.4h89.1c7.6,0,14-1.3,16.6-5.1c3.8-3.8,5.1-8.9,5.1-15.3v-10.2c0-7.6-1.3-12.7-5.1-15.3c-3.8-3.8-8.9-5.1-16.6-5.1
						H1025c-2.5,0-2.5,1.3-2.5,2.5V336.4z"/>
					<path class="st3" d="M1365.1,252.4c16.6,0,28,3.8,34.4,10.2s10.2,16.6,10.2,29.3v11.5c0,12.7-5.1,22.9-15.3,29.3
						c10.2,6.4,16.6,16.6,16.6,30.6v14c0,6.4-1.3,11.5-2.5,16.6s-3.8,8.9-6.4,12.7c-3.8,3.8-7.6,6.4-12.7,7.6
						c-5.1,1.3-11.5,2.5-19.1,2.5h-138.8c-5.1,0-7.6-2.5-7.6-7.6v-149c0-5.1,2.5-7.6,7.6-7.6h135l0,0h-1.4L1365.1,252.4
						L1365.1,252.4z M1259.4,319.9h95.5c7.6,0,12.7-1.3,15.3-3.8s3.8-5.1,3.8-10.2v-7.6c0-5.1-1.3-8.9-3.8-10.2
						c-2.5-2.5-7.6-3.8-12.7-3.8H1262c-2.5,0-2.5,1.3-2.5,2.5L1259.4,319.9L1259.4,319.9z M1259.4,345.4v34.4c0,2.5,1.3,2.5,2.5,2.5
						h95.5c6.4,0,10.2-1.3,12.7-3.8s3.8-6.4,3.8-10.2v-8.9c0-5.1-1.3-8.9-3.8-11.5s-7.6-3.8-16.6-3.8h-95.4l0,0L1259.4,345.4z"/>
					<path class="st3" d="M1497.5,252.4c3.8,0,5.1,1.3,5.1,5.1v152.8c0,3.8-1.3,5.1-5.1,5.1H1472c-3.8,0-5.1-1.3-5.1-5.1V257.5
						c0-3.8,1.3-5.1,5.1-5.1H1497.5z"/>
					<path class="st3" d="M1743.3,252.4c3.8,0,5.1,1.3,5.1,5.1v22.9c0,3.8-1.3,5.1-5.1,5.1h-73.9v124.8c0,3.8-1.3,5.1-5.1,5.1h-25.5
						c-3.8,0-5.1-1.3-5.1-5.1V285.5h-73.9c-3.8,0-5.1-1.3-5.1-5.1v-22.9c0-3.8,1.3-5.1,5.1-5.1h182.1H1743.3z"/>
					<path class="st3" d="M1928,252.4c17.8,0,30.6,3.8,38.2,12.7c7.6,7.6,11.5,20.4,11.5,35.7v12.7c0,14-2.5,24.2-7.6,31.8
						s-14,12.7-26.7,15.3l39.5,49.7c1.3,1.3,1.3,2.5,1.3,3.8s-1.3,2.5-3.8,2.5h-30.6c-2.5,0-3.8,0-3.8-1.3c-1.3,0-1.3-1.3-2.5-2.5
						l-36.9-48.4h-75.1v47.1c0,3.8-1.3,5.1-5.1,5.1h-25.5c-3.8,0-5.1-1.3-5.1-5.1V260c0-5.1,2.5-7.6,7.6-7.6h126.1l0,0H1928z
						 M1831.2,336.4h89.1c7.6,0,14-1.3,16.6-5.1c3.8-3.8,5.1-8.9,5.1-15.3v-10.2c0-7.6-1.3-12.7-5.1-15.3c-3.8-3.8-8.9-5.1-16.6-5.1
						h-86.6c-2.5,0-2.5,1.3-2.5,2.5V336.4L1831.2,336.4z"/>
					<path class="st3" d="M2059.2,252.4c3.8,0,5.1,1.3,5.1,5.1v93c0,6.4,0,11.5,1.3,15.3s2.5,7.6,5.1,10.2s5.1,3.8,8.9,5.1
						c3.8,1.3,8.9,1.3,15.3,1.3h65c6.4,0,11.5,0,15.3-1.3s7.6-2.5,8.9-5.1c2.5-2.5,3.8-6.4,5.1-10.2c1.3-3.8,1.3-8.9,1.3-15.3v-93
						c0-3.8,1.3-5.1,5.1-5.1h25.5c3.8,0,5.1,1.3,5.1,5.1v96.8c0,11.5-1.3,20.4-3.8,28s-6.4,14-11.5,19.1s-11.5,8.9-20.4,10.2
						c-8.9,2.5-17.8,3.8-30.6,3.8h-67.5c-11.5,0-21.7-1.3-30.6-3.8c-7.6-2.5-15.3-6.4-20.4-10.2c-5.1-5.1-8.9-11.5-11.5-19.1
						c-2.5-7.6-3.8-17.8-3.8-28v-96.8c0-3.8,1.3-5.1,5.1-5.1h25.5H2059.2L2059.2,252.4z"/>
					<path class="st3" d="M2326.6,252.4c3.8,0,6.4,0,8.9,1.3c2.5,0,5.1,1.3,6.4,2.5c1.3,1.3,3.8,2.5,5.1,5.1
						c1.3,2.5,2.5,5.1,5.1,8.9l48.4,112.1c1.3,1.3,1.3,2.5,3.8,2.5h2.5c1.3,0,2.5-1.3,3.8-2.5l48.4-112.1c1.3-3.8,2.5-6.4,5.1-8.9
						c1.3-2.5,2.5-3.8,5.1-5.1c1.3-1.3,3.8-2.5,6.4-2.5s5.1-1.3,8.9-1.3h25.5c7.6,0,14,1.3,16.6,5.1c2.5,3.8,3.8,10.2,3.8,19.1
						v133.7c0,3.8-1.3,5.1-5.1,5.1h-24.2c-3.8,0-5.1-1.3-5.1-5.1V288.1c0-1.3-1.3-2.5-1.3-2.5h-2.5c-1.3,0-2.5,1.3-2.5,1.3
						l-47.1,104.4c-1.3,3.8-3.8,7.6-6.4,10.2s-3.8,5.1-6.4,7.6c-2.5,1.3-5.1,3.8-7.6,3.8c-2.5,1.3-6.4,1.3-10.2,1.3h-11.5
						c-3.8,0-7.6,0-10.2-1.3s-5.1-2.5-7.6-3.8s-3.8-3.8-6.4-7.6c-2.5-2.5-3.8-6.4-6.4-10.2l-47.1-104.4c0-1.3-1.3-1.3-2.5-1.3h-2.5
						c-1.3,0-1.3,1.3-1.3,2.5v122.3c0,3.8-1.3,5.1-5.1,5.1h-24.3c-3.8,0-5.1-1.3-5.1-5.1V276.6c0-8.9,1.3-15.3,3.8-19.1
						c2.5-3.8,8.9-5.1,16.6-5.1h25.5H2326.6z"/>
				</g>
			</g>
		</g>
	</g>
</g>
<g>
	<path class="st3" d="M874,171.9c-4,2-11.9,4-22.1,4c-23.6,0-41.4-14.9-41.4-42.4c0-26.2,17.8-44,43.7-44c10.4,0,17,2.2,19.9,3.7
		l-2.6,8.8c-4.1-2-9.9-3.5-16.9-3.5c-19.6,0-32.7,12.5-32.7,34.5c0,20.5,11.8,33.7,32.2,33.7c6.6,0,13.3-1.4,17.6-3.5L874,171.9z"/>
	<path class="st3" d="M940.2,144c0,22.2-15.4,31.9-29.9,31.9c-16.3,0-28.8-11.9-28.8-30.9c0-20.1,13.2-31.9,29.8-31.9
		C928.6,113.1,940.2,125.7,940.2,144z M892.5,144.7c0,13.2,7.6,23.1,18.3,23.1c10.4,0,18.3-9.8,18.3-23.4c0-10.2-5.1-23.1-18-23.1
		C898.1,121.3,892.5,133.2,892.5,144.7z"/>
	<path class="st3" d="M954,130.7c0-6.2-0.1-11.3-0.5-16.3h9.7l0.6,9.9h0.2c3-5.7,9.9-11.3,19.9-11.3c8.3,0,21.2,5,21.2,25.6v35.9
		h-10.9v-34.7c0-9.7-3.6-17.8-13.9-17.8c-7.2,0-12.8,5.1-14.7,11.2c-0.5,1.4-0.7,3.2-0.7,5.1v36.2H954V130.7z"/>
	<path class="st3" d="M1023,130.7c0-6.2-0.1-11.3-0.5-16.3h9.7l0.6,9.9h0.2c3-5.7,9.9-11.3,19.9-11.3c8.3,0,21.2,5,21.2,25.6v35.9
		h-10.9v-34.7c0-9.7-3.6-17.8-13.9-17.8c-7.2,0-12.8,5.1-14.7,11.2c-0.5,1.4-0.7,3.2-0.7,5.1v36.2H1023V130.7z"/>
	<path class="st3" d="M1098,146.5c0.2,14.8,9.7,20.9,20.6,20.9c7.8,0,12.5-1.4,16.6-3.1l1.9,7.8c-3.9,1.7-10.4,3.7-20,3.7
		c-18.5,0-29.6-12.2-29.6-30.3s10.7-32.4,28.2-32.4c19.6,0,24.9,17.3,24.9,28.3c0,2.2-0.2,4-0.4,5.1L1098,146.5L1098,146.5z
		 M1130.1,138.7c0.1-7-2.9-17.8-15.2-17.8c-11.1,0-15.9,10.2-16.8,17.8H1130.1z"/>
	<path class="st3" d="M1197.1,172.4c-2.9,1.5-9.2,3.5-17.3,3.5c-18.1,0-29.9-12.3-29.9-30.7c0-18.5,12.7-31.9,32.3-31.9
		c6.5,0,12.2,1.6,15.2,3.1l-2.5,8.4c-2.6-1.5-6.7-2.9-12.7-2.9c-13.8,0-21.2,10.2-21.2,22.7c0,13.9,8.9,22.5,20.9,22.5
		c6.2,0,10.3-1.6,13.4-3L1197.1,172.4z"/>
	<path class="st3" d="M1224.7,97.2v17.3h15.7v8.3h-15.7v32.4c0,7.5,2.1,11.7,8.2,11.7c2.9,0,5-0.4,6.3-0.7l0.5,8.2
		c-2.1,0.9-5.5,1.5-9.7,1.5c-5.1,0-9.2-1.6-11.8-4.6c-3.1-3.2-4.2-8.6-4.2-15.7v-32.8h-9.3v-8.3h9.3v-14.4L1224.7,97.2z"/>
	<path class="st3" d="M1258,146.5c0.2,14.8,9.7,20.9,20.6,20.9c7.8,0,12.5-1.4,16.6-3.1l1.9,7.8c-3.9,1.7-10.4,3.7-20,3.7
		c-18.5,0-29.6-12.2-29.6-30.3s10.7-32.4,28.2-32.4c19.6,0,24.9,17.3,24.9,28.3c0,2.2-0.2,4-0.4,5.1L1258,146.5L1258,146.5z
		 M1290,138.7c0.1-7-2.9-17.8-15.2-17.8c-11.1,0-15.9,10.2-16.8,17.8H1290z"/>
	<path class="st3" d="M1366.1,86.4v72.7c0,5.3,0.1,11.4,0.5,15.5h-9.8l-0.5-10.4h-0.2c-3.4,6.7-10.7,11.8-20.5,11.8
		c-14.5,0-25.7-12.3-25.7-30.6c-0.1-20,12.3-32.3,27-32.3c9.2,0,15.4,4.3,18.1,9.2h0.2V86.4H1366.1z M1355.1,138.9
		c0-1.4-0.1-3.2-0.5-4.6c-1.6-7-7.6-12.7-15.8-12.7c-11.3,0-18,9.9-18,23.2c0,12.2,6,22.2,17.8,22.2c7.3,0,14-4.8,16-13
		c0.4-1.5,0.5-3,0.5-4.7V138.9z"/>
	<path class="st3" d="M1423.7,97.2v17.3h15.7v8.3h-15.7v32.4c0,7.5,2.1,11.7,8.2,11.7c2.9,0,5-0.4,6.3-0.7l0.5,8.2
		c-2.1,0.9-5.5,1.5-9.7,1.5c-5.1,0-9.2-1.6-11.8-4.6c-3.1-3.2-4.2-8.6-4.2-15.7v-32.8h-9.3v-8.3h9.3v-14.4L1423.7,97.2z"/>
	<path class="st3" d="M1505.4,144c0,22.2-15.4,31.9-29.9,31.9c-16.3,0-28.8-11.9-28.8-30.9c0-20.1,13.2-31.9,29.8-31.9
		C1493.7,113.1,1505.4,125.7,1505.4,144z M1457.6,144.7c0,13.2,7.6,23.1,18.3,23.1c10.4,0,18.3-9.8,18.3-23.4
		c0-10.2-5.1-23.1-18-23.1C1463.2,121.3,1457.6,133.2,1457.6,144.7z"/>
</g>
<g>
	<path class="st4" d="M1642.9,475.2h101.9v19.5h-38.9v126.4H1682V494.7h-39.1V475.2z"/>
	<path class="st4" d="M1849.6,494.5h-56.7v42.8h50.4v19.5h-50.4v44.7h56.7v19.5h-80.6V475h80.6V494.5z"/>
	<path class="st4" d="M1927.1,622.6c-29.2,0-51.7-16-51.7-41.8h25.6c1,12,9.5,21.6,26,21.6c16.8,0,26.3-9,26.3-21.4
		c0-35.3-77.5-12.4-77.5-66.2c0-25.6,20.4-41.6,50.2-41.6c27.9,0,47.7,14.7,49.8,39.7h-26.5c-0.8-9.9-9.5-18.9-24.6-19.3
		c-13.9-0.4-24.6,6.3-24.6,20.4c0,33,77.3,12.4,77.3,65.7C1977.5,601.6,1959.6,622.6,1927.1,622.6z"/>
	<path class="st4" d="M1998.2,475.2h101.9v19.5h-38.9v126.4h-23.9V494.7h-39.1V475.2z"/>
	<path class="st4" d="M2298.8,475v146.2h-23.9l-72-109v109h-23.9V475h23.9l72,108.8V475H2298.8z"/>
	<path class="st4" d="M2410.9,494.5h-56.7v42.8h50.4v19.5h-50.4v44.7h56.7v19.5h-80.6V475h80.6V494.5z"/>
	<path class="st4" d="M2432.7,475.2h101.9v19.5h-38.9v126.4h-23.9V494.7h-39.1V475.2z"/>
</g>
</svg>
