<?xml version="1.0" encoding="utf-8"?>
<!-- Generator: Adobe Illustrator 27.7.0, SVG Export Plug-In . SVG Version: 6.00 Build 0)  -->
<svg version="1.1" id="Layer_2_00000103973996945796771940000005334024913164636318_"
	 xmlns="http://www.w3.org/2000/svg" xmlns:xlink="http://www.w3.org/1999/xlink" x="0px" y="0px" viewBox="0 0 624.9 680.1"
	 style="enable-background:new 0 0 624.9 680.1;" xml:space="preserve">
<style type="text/css">
	.st0{fill:#213147;}
	.st1{fill:#12AAFF;}
	.st2{fill:#9DCCED;}
	.st3{fill:#FFFFFF;}
</style>
<g id="Layer_x0020_1">
	<g id="_2405611885616">
		<g>
			<g>
				<path class="st0" d="M50.8,209.1v249.6c0,15.3,8.9,30.6,21.7,38.2L289,621.7c14,7.6,30.6,7.6,44.6,0l216.5-124.8
					c14-7.6,21.7-22.9,21.7-38.2V209.1c0-15.3-8.9-30.6-21.7-38.2L333.5,46.1c-14-7.6-30.6-7.6-44.6,0L72.4,170.9
					C58.4,178.5,50.8,193.8,50.8,209.1z"/>
				<g>
					<g>
						<g>
							<path class="st1" d="M359,382.3l-30.6,84.1c-1.3,2.5-1.3,5.1,0,7.6l53.5,145.2l61.1-35.7l-73.9-201.2
								C367.9,377.2,361.5,377.2,359,382.3z"/>
						</g>
						<g>
							<path class="st1" d="M420.1,239.7c-1.3-5.1-7.6-5.1-10.2,0l-30.6,84.1c-1.3,2.5-1.3,5.1,0,7.6l86.6,238.2l61.1-35.7
								L420.1,239.7z"/>
						</g>
					</g>
				</g>
				<g>
					<path class="st2" d="M310.6,55c1.3,0,2.5,0,3.8,1.3l234.3,135c2.5,1.3,3.8,3.8,3.8,7.6v270c0,2.5-1.3,6.4-3.8,7.6l-234.3,135
						c-1.3,1.3-2.5,1.3-3.8,1.3s-2.5,0-3.8-1.3l-234.3-135c-2.5-1.3-3.8-3.8-3.8-7.6v-270c0-2.5,1.3-6.4,3.8-7.6l234.3-135
						C308,55,309.3,55,310.6,55L310.6,55z M310.6,15.5c-8.9,0-16.6,2.5-24.2,6.4l-234.3,135c-15.3,8.9-24.2,24.2-24.2,42v270
						c0,16.6,8.9,33.1,24.2,42l234.3,135c7.6,3.8,15.3,6.4,24.2,6.4c8.9,0,16.6-2.5,24.2-6.4l234.3-135c15.3-8.9,24.2-24.2,24.2-42
						v-270c0-16.6-8.9-33.1-24.2-42L336,21.9c-7.6-3.8-15.3-6.4-24.2-6.4l0,0H310.6z"/>
				</g>
				<polygon class="st0" points="156.5,569.5 178.1,510.9 221.4,546.6 180.7,584.8 				"/>
				<g>
					<path class="st3" d="M291.5,179.8h-59.9c-3.8,0-8.9,2.5-10.2,6.4L94.1,535.1l61.1,35.7l140.1-383.4c1.3-3.8-1.3-7.6-5.1-7.6
						L291.5,179.8L291.5,179.8z"/>
					<path class="st3" d="M394.6,179.8h-59.9c-3.8,0-8.9,2.5-10.2,6.4L179.4,583.5l61.1,35.7l157.9-433c1.3-3.8-1.3-7.6-5.1-7.6
						L394.6,179.8z"/>
				</g>
			</g>
		</g>
	</g>
</g>
</svg>
