<svg width="24" height="25" viewBox="0 0 24 25" fill="none" xmlns="http://www.w3.org/2000/svg">
<path d="M22.1433 10.7051C21.8943 10.7048 21.6476 10.7536 21.4174 10.8487C21.1872 10.9438 20.978 11.0834 20.8018 11.2595C19.9578 12.1043 19.1134 12.9486 18.2686 13.7926C18.5726 14.2101 18.755 14.7036 18.7955 15.2185C18.8361 15.7333 18.7332 16.2493 18.4982 16.7092C18.2633 17.1691 17.9056 17.5549 17.4647 17.8238C17.0238 18.0927 16.5171 18.2342 16.0007 18.2326H11.6411C11.5855 18.2379 11.5295 18.2315 11.4765 18.2138C11.4235 18.1962 11.3748 18.1676 11.3335 18.1301C11.2922 18.0925 11.2592 18.0467 11.2366 17.9957C11.214 17.9446 11.2024 17.8894 11.2024 17.8336C11.2024 17.7778 11.214 17.7225 11.2366 17.6715C11.2592 17.6204 11.2922 17.5746 11.3335 17.5371C11.3748 17.4995 11.4235 17.471 11.4765 17.4533C11.5295 17.4357 11.5855 17.4293 11.6411 17.4346H16.0007C16.358 17.4355 16.709 17.3405 17.0171 17.1594C17.3251 16.9783 17.5789 16.7178 17.7519 16.4052C17.9249 16.0925 18.0108 15.7391 18.0006 15.382C17.9904 15.0248 17.8844 14.6769 17.6938 14.3746C17.5125 14.089 17.2625 13.8533 16.9668 13.689C16.6711 13.5247 16.339 13.437 16.0007 13.4339H7.60078C6.942 13.4473 6.29396 13.6034 5.70129 13.8913C5.10862 14.1793 4.58538 14.5923 4.16762 15.1018L9.72114 20.6553C9.81401 20.6404 9.9079 20.6328 10.002 20.6325H16.8022C17.4696 20.6282 18.1251 20.4559 18.7084 20.1314C19.2916 19.807 19.7838 19.3409 20.1394 18.7762C21.0562 17.449 22.7709 14.9662 23.5293 13.891C23.809 13.511 23.972 13.0578 23.9985 12.5866C24.0084 12.3431 23.9679 12.1002 23.8795 11.8731C23.7912 11.6459 23.6568 11.4395 23.4849 11.2667C23.3089 11.0907 23.0999 10.9512 22.8699 10.8561C22.6399 10.7609 22.3934 10.7121 22.1446 10.7123L22.1433 10.7051ZM2.81405 15.0154C2.75842 15.0142 2.70318 15.0249 2.65204 15.0468C2.60091 15.0688 2.55507 15.1014 2.51764 15.1426L0.11768 17.5426C0.0803822 17.5797 0.0507914 17.6238 0.0305965 17.6724C0.0104015 17.721 0 17.7732 0 17.8258C0 17.8784 0.0104015 17.9305 0.0305965 17.9791C0.0507914 18.0277 0.0803822 18.0719 0.11768 18.109L6.51959 24.5085C6.59464 24.5828 6.69598 24.6245 6.80159 24.6245C6.9072 24.6245 7.00854 24.5828 7.08359 24.5085L9.48355 22.1085C9.55786 22.0335 9.59955 21.9321 9.59955 21.8265C9.59955 21.7209 9.55786 21.6196 9.48355 21.5445L3.08164 15.1426C3.01119 15.0687 2.91589 15.0234 2.81405 15.0154Z" fill="#8E9BAE"/>
<path d="M4.76161 12.0178H7.26477C6.53082 11.1353 5.99189 10.1075 5.68335 9.00199C5.37481 7.89643 5.30365 6.7381 5.47456 5.60309C5.64546 4.46808 6.05454 3.38209 6.67496 2.41641C7.29537 1.45073 8.11307 0.627228 9.07434 0C7.68592 0.0184763 6.33628 0.460569 5.206 1.26711C4.07572 2.07365 3.21872 3.20615 2.74971 4.51308C2.28071 5.82001 2.22206 7.23901 2.58161 8.58019C2.94115 9.92138 3.70175 11.1207 4.76161 12.0178Z" fill="#8E9BAE"/>
<path d="M13.5131 0C12.1191 0.00484333 10.76 0.436617 9.61884 1.23723C8.47766 2.03783 7.60914 3.16885 7.13018 4.478C6.65123 5.78715 6.58484 7.21159 6.93994 8.55961C7.29504 9.90764 8.05459 11.1145 9.11635 12.0178H17.9086C18.9743 11.1164 19.7375 9.90958 20.0951 8.56038C20.4526 7.21118 20.3872 5.7847 19.9078 4.47386C19.4284 3.16301 18.558 2.03102 17.4143 1.23089C16.2706 0.430759 14.9089 0.00109172 13.5131 0Z" fill="#8E9BAE"/>
</svg>
