<svg width="24" height="14" viewBox="0 0 24 14" fill="none" xmlns="http://www.w3.org/2000/svg">
<path d="M6.77291 13.9452C5.88002 13.9425 4.9965 13.7565 4.1727 13.3978C3.34891 13.0391 2.60113 12.5148 1.97208 11.8548C1.34303 11.1949 0.844978 10.4121 0.506625 9.5515C0.168273 8.69094 -0.00388248 7.76933 6.64256e-05 6.83942V6.74581C0.0791254 4.92025 0.834547 3.19761 2.10739 1.93976C3.38023 0.681909 5.07154 -0.0132935 6.82615 0.000192603C8.58077 0.0136787 10.2622 0.734722 11.5171 2.012C12.772 3.28928 13.5026 5.02327 13.5558 6.84985C13.5584 7.7779 13.3852 8.69738 13.046 9.55557C12.7068 10.4138 12.2083 11.1938 11.5791 11.851C10.9499 12.5082 10.2025 13.0296 9.37947 13.3854C8.55644 13.7411 7.67403 13.9244 6.78292 13.9244L6.77291 13.9452Z" fill="#FAFAFA"/>
<path d="M20.9788 6.90208C20.988 8.08218 20.8192 9.25655 20.4786 10.3821C20.2534 11.1849 19.8757 11.9323 19.3681 12.5804C19.0419 13.0296 18.5861 13.3584 18.0675 13.5182C17.7457 13.6019 17.4092 13.6009 17.0878 13.5154C16.7665 13.43 16.4707 13.2624 16.2269 13.0283C15.6553 12.4939 15.213 11.8264 14.9363 11.0801C14.6561 10.3592 14.4547 9.60792 14.336 8.84012C14.176 7.80669 14.1457 6.75599 14.2459 5.71443C14.3309 4.4361 14.6716 3.19041 15.2463 2.05736C15.5296 1.46648 15.9534 0.960627 16.477 0.588119C16.834 0.325974 17.2658 0.197622 17.7019 0.224116C18.138 0.25061 18.5525 0.430526 18.8779 0.734127C19.4699 1.26262 19.9271 1.93545 20.2085 2.69277C20.5171 3.45986 20.7288 4.2654 20.8386 5.08919C20.9251 5.68945 20.972 6.29516 20.9788 6.90208Z" fill="#FAFAFA"/>
<path d="M21.609 6.90183C21.5989 5.68166 21.6792 4.46251 21.8491 3.25519C21.9192 2.59532 22.0809 1.94945 22.3293 1.33801C22.391 1.18465 22.487 1.04901 22.6094 0.942209C22.6346 0.914789 22.6648 0.893015 22.6983 0.878108C22.7318 0.863201 22.7681 0.855469 22.8045 0.855469C22.841 0.855469 22.877 0.863201 22.9105 0.878108C22.9441 0.893015 22.9742 0.914789 22.9994 0.942209C23.1236 1.06211 23.2224 1.20749 23.2896 1.36929C23.5083 1.93843 23.6594 2.53318 23.7397 3.14047C23.888 4.13017 23.9715 5.12934 23.9898 6.13084C24.0216 7.29948 23.9783 8.46913 23.8599 9.63172C23.7965 10.4464 23.6421 11.2504 23.3998 12.0279C23.3384 12.2509 23.2365 12.4597 23.0996 12.6427C22.8995 12.9032 22.7093 12.9136 22.4992 12.6427C22.3609 12.4553 22.256 12.2434 22.1893 12.0175C21.9878 11.3811 21.8502 10.7248 21.779 10.0588C21.6581 9.01131 21.6014 7.95684 21.609 6.90183Z" fill="#FAFAFA"/>
</svg>
