<?xml version="1.0" encoding="utf-8"?>
<!-- Generator: Adobe Illustrator 27.7.0, SVG Export Plug-In . SVG Version: 6.00 Build 0)  -->
<svg version="1.1" id="Layer_1" xmlns="http://www.w3.org/2000/svg" xmlns:xlink="http://www.w3.org/1999/xlink" x="0px" y="0px"
	 viewBox="0 0 1000 1000" style="enable-background:new 0 0 1000 1000;" xml:space="preserve">
<style type="text/css">
	.st0{fill:url(#SVGID_1_);}
	.st1{fill:url(#SVGID_00000078003199230936882740000013977698100648532123_);}
	.st2{fill:#FFFFFF;}
</style>
<g id="GBPs">
	<linearGradient id="SVGID_1_" gradientUnits="userSpaceOnUse" x1="500.5" y1="53.6468" x2="500.5" y2="947.3531">
		<stop  offset="2.611570e-04" style="stop-color:#3A53A4"/>
		<stop  offset="0.921" style="stop-color:#203468"/>
	</linearGradient>
	<circle class="st0" cx="500.5" cy="500.5" r="446.9"/>
	<g>
		
			<linearGradient id="SVGID_00000119807811882103013500000014487181774851895231_" gradientUnits="userSpaceOnUse" x1="500.5" y1="8.2947" x2="500.5" y2="992.7053">
			<stop  offset="7.568679e-02" style="stop-color:#EC2227"/>
			<stop  offset="0.9422" style="stop-color:#BF3E45"/>
		</linearGradient>
		<path style="fill:url(#SVGID_00000119807811882103013500000014487181774851895231_);" d="M500.5,68.3c58.4,0,115,11.4,168.2,33.9
			c51.5,21.8,97.7,52.9,137.4,92.6c39.7,39.7,70.9,85.9,92.6,137.4c22.5,53.2,33.9,109.8,33.9,168.2s-11.4,115-33.9,168.2
			c-21.8,51.5-52.9,97.7-92.6,137.4c-39.7,39.7-85.9,70.9-137.4,92.6c-53.2,22.5-109.8,33.9-168.2,33.9s-115-11.4-168.2-33.9
			c-51.5-21.8-97.7-52.9-137.4-92.6c-39.7-39.7-70.9-85.9-92.6-137.4c-22.5-53.2-33.9-109.8-33.9-168.2s11.4-115,33.9-168.2
			c21.8-51.5,52.9-97.7,92.6-137.4s85.9-70.9,137.4-92.6C385.5,79.7,442.1,68.3,500.5,68.3 M500.5,8.3
			C228.7,8.3,8.3,228.7,8.3,500.5s220.4,492.2,492.2,492.2s492.2-220.4,492.2-492.2S772.3,8.3,500.5,8.3L500.5,8.3z"/>
	</g>
	<g id="logo_00000137854580349288144520000018197414216163954822_">
		<g>
			<g>
				<path class="st2" d="M577.5,806H219.3v-96.3h358.2c50.8,0,93.7-30.8,93.7-67.3V499.9h96.3v142.6
					C767.5,732.6,682.2,806,577.5,806z"/>
			</g>
		</g>
		<g>
			<g>
				<path class="st2" d="M313.4,497.4H217v-137c0-104.8,85.2-190,190-190h361.3v96.3H407c-51.6,0-93.7,42-93.7,93.7V497.4z"/>
			</g>
		</g>
		<g>
			<path class="st2" d="M516,308.1c17.9,0,34.8,2,50.9,6c16,4,30.5,8.6,43.4,13.9L588,383.6c-11.6-4.6-22.9-8.3-34-11.2
				c-11.1-2.8-21.8-4.2-32-4.2c-10.6,0-19.8,3.1-27.5,9.2c-7.8,6.1-11.7,17-11.7,32.5v46.6h90.8v53.1h-90.8v34.7
				c0,17.5-4,30.8-11.9,39.9c-7.9,9.1-16.2,15.8-24.8,20.1h174.2v63h-254v-60c13.6-6,24.2-13.1,32-21.6c7.8-8.4,11.7-22.1,11.7-40.9
				v-35.2h-43.2v-53.1h43.2v-47.1c0-24.5,4.8-44.1,14.4-58.8c9.6-14.7,22.4-25.5,38.5-32.3C478.7,311.5,496.5,308.1,516,308.1z"/>
		</g>
	</g>
</g>
</svg>
