<svg width="24" height="24" viewBox="0 0 24 24" fill="none" xmlns="http://www.w3.org/2000/svg">
<path d="M11.7731 7.87209C12.5901 7.87198 13.3888 8.11414 14.0682 8.56798C14.7476 9.02182 15.2771 9.66695 15.5899 10.4218C15.9026 11.1766 15.9845 12.0072 15.8252 12.8085C15.6659 13.6099 15.2725 14.346 14.6948 14.9237C14.1171 15.5015 13.381 15.895 12.5797 16.0544C11.7784 16.2139 10.9478 16.1321 10.1929 15.8194C9.43807 15.5068 8.79289 14.9773 8.33896 14.298C7.88503 13.6187 7.64275 12.82 7.64275 12.003C7.64275 10.9075 8.07788 9.85685 8.85245 9.08218C9.62702 8.3075 10.6776 7.87224 11.7731 7.87209ZM11.7731 5.80665C10.2391 5.80753 8.7602 6.37813 7.62321 7.4078C6.48622 8.43747 5.77223 9.85276 5.61976 11.3791C5.4673 12.9054 5.88724 14.434 6.79809 15.6682C7.70895 16.9025 9.04579 17.7544 10.5492 18.0586C12.0527 18.3629 13.6156 18.0979 14.9347 17.3149C16.2538 16.532 17.235 15.2871 17.688 13.8215C18.1411 12.356 18.0336 10.7745 17.3865 9.38373C16.7393 7.99299 15.5987 6.89221 14.1858 6.29495C13.4227 5.97129 12.602 5.80519 11.7731 5.80665Z" fill="white"/>
<path d="M17.5354 2.06545C18.7011 2.06895 19.8181 2.53362 20.6424 3.35797C21.4666 4.18232 21.9311 5.29936 21.9345 6.46508V17.5355C21.931 18.7011 21.4664 19.818 20.6422 20.6422C19.8179 21.4665 18.701 21.9311 17.5354 21.9346H6.46501C5.29928 21.9312 4.18224 21.4667 3.35789 20.6424C2.53354 19.8182 2.06887 18.7012 2.06537 17.5355V6.46508C2.06873 5.29926 2.53334 4.18214 3.3577 3.35778C4.18207 2.53341 5.29918 2.06881 6.46501 2.06545H17.5354ZM17.5354 6.64982e-06H6.46501C5.60035 -0.00123986 4.74441 0.17277 3.94888 0.511527C2.40219 1.17048 1.1704 2.40227 0.511451 3.94896C0.172693 4.74449 -0.00131615 5.60043 -6.96441e-05 6.46508V17.5355C-0.00130264 18.4 0.172708 19.2557 0.511451 20.0511C1.1704 21.5977 2.40219 22.8295 3.94888 23.4885C4.74441 23.8272 5.60035 24.0012 6.46501 24H17.5354C19.2495 23.9985 20.8929 23.317 22.1049 22.105C23.3169 20.893 23.9985 19.2495 23.9999 17.5355V6.46508C23.9998 5.61632 23.8321 4.77593 23.5065 3.9921C23.181 3.20827 22.7039 2.49641 22.1026 1.89734C21.5143 1.30764 20.8177 0.837093 20.051 0.511527C19.2556 0.172784 18.3999 -0.00122634 17.5354 6.64982e-06Z" fill="white"/>
<path d="M18.3846 6.99191C19.2089 6.99191 19.8771 6.32367 19.8771 5.49937C19.8771 4.67507 19.2089 4.00684 18.3846 4.00684C17.5603 4.00684 16.8921 4.67507 16.8921 5.49937C16.8921 6.32367 17.5603 6.99191 18.3846 6.99191Z" fill="white"/>
</svg>
