<?xml version="1.0" encoding="utf-8"?>
<!-- Generator: Adobe Illustrator 27.7.0, SVG Export Plug-In . SVG Version: 6.00 Build 0)  -->
<svg version="1.1" id="Layer_1" xmlns="http://www.w3.org/2000/svg" xmlns:xlink="http://www.w3.org/1999/xlink" x="0px" y="0px"
	 viewBox="0 0 1000 1000" style="enable-background:new 0 0 1000 1000;" xml:space="preserve">
<style type="text/css">
	.st0{fill:url(#SVGID_1_);}
	.st1{fill:url(#SVGID_00000082333472403627297650000002897635004580295090_);}
	.st2{fill:url(#SVGID_00000092451948020947668090000017433272260647676082_);}
	.st3{fill:#FFFFFF;}
</style>
<g id="KRWs">
	<g id="BG" transform="rotate(-56.3099325)">
		<linearGradient id="SVGID_1_" gradientUnits="userSpaceOnUse" x1="-95.4287" y1="641.4378" x2="-95.4287" y2="1135.1007">
			<stop  offset="2.611570e-04" style="stop-color:#3B5BA6"/>
			<stop  offset="1" style="stop-color:#134A9C"/>
		</linearGradient>
		<path class="st0" d="M-267,286.7c-0.2,0.1-0.4,0.3-0.6,0.4c-2.8,1.9-5.6,3.9-8.3,6c-0.9,0.6-1.7,1.3-2.5,1.9c-1.7,1.3-3.4,2.6-5,4
			c-0.7,0.5-1.3,1-1.9,1.6c-2.4,1.9-4.7,4-7,6.1c-0.8,0.6-1.4,1.3-2.1,2c-4.5,4.2-8.8,8.6-12.8,13.1c-0.7,0.7-1.3,1.4-1.9,2.2
			c-1.7,1.9-3.4,3.9-5,5.9c-2.2,2.7-4.3,5.4-6.4,8.2c-0.1,0.1-0.2,0.3-0.3,0.4c-4.2,5.6-8.1,11.5-11.7,17.5c-1.8,3-3.6,6-5.2,9.1
			c-0.1,0.2-0.2,0.3-0.3,0.5c-1.7,3-3.2,6.1-4.7,9.2c0,0,0,0,0,0.1c-1.5,3.2-3,6.5-4.4,9.8c-1.4,3.3-2.8,6.7-4,10.1
			c-0.4,1-0.7,2-1.1,3.1c-0.7,2-1.4,4-2,6c-0.3,0.8-0.5,1.6-0.7,2.4c-1,3.1-1.8,6.2-2.6,9.3c-0.3,1.1-0.6,2.2-0.8,3.4
			c-0.6,2.1-1,4.3-1.5,6.4c-0.1,0.5-0.2,1.1-0.3,1.7c-0.7,3.2-1.2,6.5-1.7,9.7c-0.2,1.5-0.5,3-0.6,4.5c-0.3,1.8-0.5,3.6-0.7,5.3
			c0,0.1,0,0.1,0,0.2c-0.1,0.8-0.2,1.5-0.3,2.3c-0.1,1.5-0.3,3-0.4,4.5c-0.2,1.6-0.2,3.3-0.3,4.9l0,0c-0.1,0.9-0.1,1.8-0.1,2.6
			c-0.1,1.4-0.1,2.7-0.1,4.1c-0.1,1.9-0.1,3.8-0.1,5.8c0,2,0,4,0.1,6c0,2,0.1,4,0.2,5.9c0,0.3,0,0.6,0,0.9c0.1,1.7,0.2,3.4,0.3,5
			c0.1,2.2,0.4,4.3,0.6,6.4c5.7,53,30,100.5,66.3,135.8c35.4,34.5,82.2,57.3,134.2,62.3c4.7,0.4,9.5,0.8,14.3,0.9
			c2.4,0.1,4.8,0.1,7.2,0.1C-18,694.6,82,794.5,82,917.9c0,121.2-96.6,219.9-217,223.2c-0.3,0-0.7,0-1,0c-1.8,0.1-3.5,0.1-5.3,0.1
			c-246.7,0-446.6-200-446.7-446.7c0-244.9,197.1-443.8,441.4-446.6c-0.7,0-1.3,0-1.9,0.1c-35.6,1.1-69,10.6-98.5,26.5
			C-253.9,278.2-260.6,282.2-267,286.7z"/>
		
			<linearGradient id="SVGID_00000167372367970236713360000015265011149018368933_" gradientUnits="userSpaceOnUse" x1="238.8796" y1="462.7855" x2="238.8796" y2="1037.0375">
			<stop  offset="0" style="stop-color:#CD2F3A"/>
			<stop  offset="1" style="stop-color:#EE2438"/>
		</linearGradient>
		<path style="fill:url(#SVGID_00000167372367970236713360000015265011149018368933_);" d="M-16.8,1102.4c0.2-0.1,0.4-0.3,0.6-0.4
			c2.8-1.9,5.6-3.9,8.3-6c0.9-0.6,1.7-1.3,2.5-1.9c1.7-1.3,3.4-2.6,5-4c0.7-0.5,1.3-1,1.9-1.6c2.4-1.9,4.7-4,7-6.1
			c0.8-0.6,1.4-1.3,2.1-2c4.5-4.2,8.8-8.6,12.8-13.1c0.7-0.7,1.3-1.4,1.9-2.2c1.7-1.9,3.4-3.9,5-5.9c2.2-2.7,4.3-5.4,6.4-8.2
			c0.1-0.1,0.2-0.3,0.3-0.4c4.2-5.6,8.1-11.5,11.7-17.5c1.8-3,3.6-6,5.2-9.1c0.1-0.2,0.2-0.3,0.3-0.5c1.7-3,3.2-6.1,4.7-9.2
			c0,0,0,0,0-0.1c1.5-3.2,3-6.5,4.4-9.8c1.4-3.3,2.8-6.7,4-10.1c0.4-1,0.7-2,1.1-3.1c0.7-2,1.4-4,2-6c0.3-0.8,0.5-1.6,0.7-2.4
			c1-3.1,1.8-6.2,2.6-9.3c0.3-1.1,0.6-2.2,0.8-3.4c0.6-2.1,1-4.3,1.5-6.4c0.1-0.5,0.2-1.1,0.3-1.7c0.7-3.2,1.2-6.5,1.7-9.7
			c0.2-1.5,0.5-3,0.6-4.5c0.3-1.8,0.5-3.6,0.7-5.3c0-0.1,0-0.1,0-0.2c0.1-0.8,0.2-1.5,0.3-2.3c0.1-1.5,0.3-3,0.4-4.5
			c0.2-1.6,0.2-3.3,0.3-4.9l0,0c0.1-0.9,0.1-1.8,0.1-2.6c0.1-1.4,0.1-2.7,0.1-4.1c0.1-1.9,0.1-3.8,0.1-5.8c0-2,0-4-0.1-6
			c0-2-0.1-4-0.2-5.9c0-0.3,0-0.6,0-0.9c-0.1-1.7-0.2-3.4-0.3-5c-0.1-2.2-0.4-4.3-0.6-6.4c-5.7-53-30-100.5-66.3-135.8
			c-35.4-34.5-82.2-57.3-134.2-62.3c-4.7-0.4-9.5-0.8-14.3-0.9c-2.4-0.1-4.8-0.1-7.2-0.1c-123.3,0-223.3-100-223.3-223.3
			c0-121.2,96.6-219.9,217-223.2c0.3,0,0.7,0,1,0c1.8-0.1,3.5-0.1,5.3-0.1c246.7,0,446.6,200,446.7,446.7
			c0,244.9-197.1,443.8-441.4,446.6c0.7,0,1.3,0,1.9-0.1c35.6-1.1,69-10.6,98.5-26.5C-29.9,1110.9-23.2,1106.8-16.8,1102.4z"/>
	</g>
	<g>
		
			<linearGradient id="SVGID_00000069389383945581839280000013753874478806101387_" gradientUnits="userSpaceOnUse" x1="500.5" y1="6" x2="500.5" y2="995">
			<stop  offset="0" style="stop-color:#FFFFFF"/>
			<stop  offset="0" style="stop-color:#FFFFFF"/>
			<stop  offset="1" style="stop-color:#DCDCDC"/>
		</linearGradient>
		<path style="fill:url(#SVGID_00000069389383945581839280000013753874478806101387_);" d="M500.5,66c58.7,0,115.6,11.5,169.1,34.1
			c51.7,21.9,98.2,53.2,138.1,93.1c39.9,39.9,71.3,86.4,93.1,138.1c22.6,53.5,34.1,110.4,34.1,169.1s-11.5,115.6-34.1,169.1
			c-21.9,51.7-53.2,98.2-93.1,138.1c-39.9,39.9-86.4,71.3-138.1,93.1C616.1,923.5,559.2,935,500.5,935s-115.6-11.5-169.1-34.1
			c-51.7-21.9-98.2-53.2-138.1-93.1c-39.9-39.9-71.3-86.4-93.1-138.1C77.5,616.1,66,559.2,66,500.5s11.5-115.6,34.1-169.1
			c21.9-51.7,53.2-98.2,93.1-138.1s86.4-71.3,138.1-93.1C384.9,77.5,441.8,66,500.5,66 M500.5,6C227.4,6,6,227.4,6,500.5
			S227.4,995,500.5,995S995,773.6,995,500.5S773.6,6,500.5,6L500.5,6z"/>
	</g>
	<g id="logo_00000181779005286111688350000010920844292355767685_">
		<g>
			<g>
				<path class="st3" d="M577.9,814.4h-362v-97.4h362c51.3,0,94.7-31.1,94.7-68V505h97.4v144.1C769.9,740.2,683.7,814.4,577.9,814.4
					z"/>
			</g>
		</g>
		<g>
			<g>
				<path class="st3" d="M311,502.6h-97.4V364.1c0-105.9,86.1-192,192-192h365.1v97.4H405.6c-52.2,0-94.7,42.5-94.7,94.7V502.6z"/>
			</g>
		</g>
		<g>
			<path class="st3" d="M653,597.1h-45.7l-13.5,70.3h-52.2L527,597.1h-67.7l-14.6,70.3h-53.4l-13.1-70.3H333v-54.8h34.8l-10.5-56.1
				H333v-54.6h14L333,357h50.4l12.8,74.5h52.9l15.6-74.5h58.6l14.6,74.5h52.7l12.8-74.5H653l-14.1,74.5H653v54.6h-24.6l-10.6,56.1
				H653V597.1z M437.8,486.2h-32.1l9.6,56.1H426L437.8,486.2z M515.5,542.3l-11.8-56.1h-21.3l-11.6,56.1H515.5z M581.2,486.2h-32.4
				l11.1,56.1h11.6L581.2,486.2z"/>
		</g>
	</g>
</g>
</svg>
