<svg width="24" height="24" viewBox="0 0 24 24" fill="none" xmlns="http://www.w3.org/2000/svg">
<path d="M23.0734 24V15.2C23.0734 10.8999 22.1804 7.57974 17.3121 7.57974C16.4038 7.54478 15.5034 7.76717 14.707 8.22331C13.9105 8.67944 13.2478 9.35231 12.7896 10.1699H12.7226V7.97989H8.14235V23.9802H12.9434V16.0499C12.9434 13.9598 13.3275 11.9399 15.824 11.9399C18.3205 11.9399 18.3108 14.33 18.3108 16.18V23.9802L23.0734 24Z" fill="white"/>
<path d="M0.412735 7.98047H5.21372V23.9808H0.412735V7.98047Z" fill="white"/>
<path d="M2.79418 1.69975e-05C2.24385 -0.00194572 1.70526 0.16611 1.2465 0.482692C0.787744 0.799273 0.429455 1.25029 0.216672 1.77886C0.00388887 2.30743 -0.0538771 2.88981 0.0509332 3.45247C0.155744 4.01513 0.418422 4.53293 0.805549 4.94029C1.19268 5.34765 1.68702 5.62637 2.22617 5.74133C2.76531 5.85629 3.3251 5.80219 3.83479 5.58605C4.34449 5.36992 4.78121 5.00144 5.08991 4.52695C5.39861 4.05247 5.56528 3.49337 5.56907 2.92023C5.5716 2.53855 5.50192 2.15996 5.36372 1.80645C5.22551 1.45294 5.02163 1.13142 4.76382 0.86014C4.50601 0.588855 4.19928 0.373186 3.86128 0.225607C3.52329 0.0780281 3.16067 0.00132407 2.79418 1.69975e-05Z" fill="white"/>
</svg>
