<svg width="24" height="22" viewBox="0 0 24 22" fill="none" xmlns="http://www.w3.org/2000/svg">
<g clip-path="url(#clip0_68_4037)">
<path d="M9 12C10.1867 12 11.3467 11.6481 12.3334 10.9888C13.3201 10.3295 14.0892 9.39246 14.5433 8.2961C14.9974 7.19975 15.1162 5.99335 14.8847 4.82946C14.6532 3.66558 14.0818 2.59648 13.2426 1.75736C12.4035 0.918247 11.3344 0.346802 10.1705 0.115291C9.00666 -0.11622 7.80026 0.00259969 6.7039 0.456725C5.60754 0.910851 4.67047 1.67989 4.01118 2.66658C3.35189 3.65328 3 4.81331 3 6C3 7.5913 3.63214 9.11742 4.75736 10.2426C5.88258 11.3679 7.4087 12 9 12Z" fill="#8E9BAE"/>
<path d="M6.42858 13C4.72361 13 3.08848 13.6773 1.88289 14.8829C0.677295 16.0885 0 17.7236 0 19.4286C0 19.7663 0.0665118 20.1006 0.195738 20.4126C0.324964 20.7246 0.514373 21.0081 0.753152 21.2468C0.991931 21.4856 1.2754 21.675 1.58738 21.8043C1.89936 21.9335 2.23374 22 2.57142 22H15.4286C16.1106 22 16.7646 21.7291 17.2468 21.2468C17.7291 20.7646 18 20.1106 18 19.4286C18 17.7236 17.3227 16.0885 16.1171 14.8829C14.9115 13.6773 13.2764 13 11.5714 13H6.42858Z" fill="#8E9BAE"/>
<path d="M15.8374 10.1556C15.6575 10.4509 15.7914 10.848 16.1315 10.9109C16.4178 10.9664 16.7084 10.9962 17 11C18.3234 10.9959 19.5913 10.4674 20.5257 9.53012C21.46 8.59288 21.9847 7.32343 21.9847 5.99999C21.9847 4.67656 21.46 3.4071 20.5257 2.46986C19.5913 1.53262 18.3234 1.00405 17 1C16.7084 1.00378 16.4178 1.03359 16.1315 1.08906C15.7914 1.15197 15.6575 1.54895 15.8374 1.84431C16.5979 3.097 17 4.53434 17 5.99978C17 7.46522 16.5979 8.90256 15.8374 10.1552V10.1556Z" fill="#8E9BAE"/>
<path d="M19.657 21.169C19.504 21.5404 19.753 22 20.1546 22H21.4286C21.7663 22 22.1006 21.9335 22.4126 21.8043C22.7246 21.675 23.0081 21.4856 23.2468 21.2468C23.4856 21.0081 23.675 20.7246 23.8043 20.4126C23.9335 20.1006 24 19.7663 24 19.4286C24 18.5844 23.8337 17.7484 23.5107 16.9685C23.1876 16.1885 22.7141 15.4798 22.1172 14.8829C21.5202 14.2859 20.8116 13.8124 20.0316 13.4893C19.2517 13.1663 18.4157 13 17.5715 13C17.5295 13.0024 17.4891 13.017 17.4552 13.042C17.4214 13.067 17.3955 13.1013 17.3808 13.1407C17.3661 13.1801 17.3632 13.2229 17.3724 13.264C17.3817 13.305 17.4026 13.3425 17.4328 13.3719C18.246 14.1569 18.8925 15.0979 19.3336 16.1386C19.7748 17.1793 20.0014 18.2983 20 19.4286C20.0008 20.0256 19.8842 20.6169 19.657 21.169Z" fill="#8E9BAE"/>
</g>
<defs>
<clipPath id="clip0_68_4037">
<rect width="24" height="22" fill="white"/>
</clipPath>
</defs>
</svg>
