<?xml version="1.0" encoding="utf-8"?>
<!-- Generator: Adobe Illustrator 27.7.0, SVG Export Plug-In . SVG Version: 6.00 Build 0)  -->
<svg version="1.1" id="Layer_2_00000047764717840217133120000011769875464314978176_"
	 xmlns="http://www.w3.org/2000/svg" xmlns:xlink="http://www.w3.org/1999/xlink" x="0px" y="0px" viewBox="0 0 2555.4 680.1"
	 style="enable-background:new 0 0 2555.4 680.1;" xml:space="preserve">
<style type="text/css">
	.st0{fill:#FFFFFF;}
	.st1{font-family:'Poppins-ExtraBold';}
	.st2{font-size:118.075px;}
	.st3{fill:#FF9100;}
</style>
<g id="Layer_x0020_1">
	<g id="_2405611885616">
		<g>
			<g>
				<g>
					<path class="st0" d="M765,395.6c6.4,0,11.5,1.3,15.3,3.8c3.8,2.5,7.6,7.6,11.5,14l77.7,140.1c1.3,1.3,1.3,2.5,0,3.8
						c0,1.3-1.3,1.3-3.8,1.3h-29.3c-2.5,0-3.8-1.3-5.1-2.5l-16.7-30.6H705.1l-16.6,30.6c-1.3,2.5-2.5,2.5-5.1,2.5h-30.6
						c-2.5,0-3.8,0-3.8-1.3s0-2.5,0-3.8l76.4-140.1c3.8-7.6,7.6-11.5,11.5-14s7.6-3.8,12.7-3.8h14H765L765,395.6z M719.1,498.8h80.2
						L762.4,430c-1.3-1.3-1.3-1.3-2.5-1.3h-1.3c-1.3,0-2.5,0-2.5,1.3L719.1,498.8z"/>
					<path class="st0" d="M1038.8,395.6c17.8,0,30.6,3.8,38.2,12.7c7.6,7.6,11.5,20.4,11.5,35.7v12.7c0,14-2.5,24.2-7.6,31.8
						s-14,12.7-26.7,15.3l39.5,49.7c1.3,1.3,1.3,2.5,1.3,3.8s-1.3,2.5-3.8,2.5h-30.6c-2.5,0-3.8,0-3.8-1.3c-1.3,0-1.3-1.3-2.5-2.5
						l-36.9-48.4h-75.1v47.1c0,3.8-1.3,5.1-5.1,5.1h-25.5c-3.8,0-5.1-1.3-5.1-5.1V403.2c0-5.1,2.5-7.6,7.6-7.6h126.1l0,0H1038.8z
						 M942,479.6h89.1c7.6,0,14-1.3,16.6-5.1c3.8-3.8,5.1-8.9,5.1-15.3V449c0-7.6-1.3-12.7-5.1-15.3c-3.8-3.8-8.9-5.1-16.6-5.1
						h-86.6c-2.5,0-2.5,1.3-2.5,2.5V479.6z"/>
					<path class="st0" d="M1284.6,395.6c16.6,0,28,3.8,34.4,10.2s10.2,16.6,10.2,29.3v11.5c0,12.7-5.1,22.9-15.3,29.3
						c10.2,6.4,16.6,16.6,16.6,30.6v14c0,6.4-1.3,11.5-2.5,16.6c-1.2,5.1-3.8,8.9-6.4,12.7c-3.8,3.8-7.6,6.4-12.7,7.6
						c-5.1,1.3-11.5,2.5-19.1,2.5H1151c-5.1,0-7.6-2.5-7.6-7.6v-149c0-5.1,2.5-7.6,7.6-7.6h135l0,0h-1.4L1284.6,395.6L1284.6,395.6z
						 M1178.9,463.1h95.5c7.6,0,12.7-1.3,15.3-3.8s3.8-5.1,3.8-10.2v-7.6c0-5.1-1.3-8.9-3.8-10.2c-2.5-2.5-7.6-3.8-12.7-3.8h-95.5
						c-2.5,0-2.5,1.3-2.5,2.5L1178.9,463.1L1178.9,463.1z M1178.9,488.6V523c0,2.5,1.3,2.5,2.5,2.5h95.5c6.4,0,10.2-1.3,12.7-3.8
						s3.8-6.4,3.8-10.2v-8.9c0-5.1-1.3-8.9-3.8-11.5s-7.6-3.8-16.6-3.8h-95.4l0,0L1178.9,488.6z"/>
					<path class="st0" d="M1417,395.6c3.8,0,5.1,1.3,5.1,5.1v152.8c0,3.8-1.3,5.1-5.1,5.1h-25.5c-3.8,0-5.1-1.3-5.1-5.1V400.7
						c0-3.8,1.3-5.1,5.1-5.1H1417z"/>
					<path class="st0" d="M1662.8,395.6c3.8,0,5.1,1.3,5.1,5.1v22.9c0,3.8-1.3,5.1-5.1,5.1h-73.9v124.8c0,3.8-1.3,5.1-5.1,5.1h-25.5
						c-3.8,0-5.1-1.3-5.1-5.1V428.7h-73.9c-3.8,0-5.1-1.3-5.1-5.1v-22.9c0-3.8,1.3-5.1,5.1-5.1h182.1H1662.8z"/>
					<path class="st0" d="M1847.5,395.6c17.8,0,30.6,3.8,38.2,12.7c7.6,7.6,11.5,20.4,11.5,35.7v12.7c0,14-2.5,24.2-7.6,31.8
						s-14,12.7-26.7,15.3l39.5,49.7c1.3,1.3,1.3,2.5,1.3,3.8s-1.3,2.5-3.8,2.5h-30.6c-2.5,0-3.8,0-3.8-1.3c-1.3,0-1.3-1.3-2.5-2.5
						l-36.9-48.4H1751v47.1c0,3.8-1.3,5.1-5.1,5.1h-25.5c-3.8,0-5.1-1.3-5.1-5.1V403.2c0-5.1,2.5-7.6,7.6-7.6H1849l0,0H1847.5z
						 M1750.7,479.6h89.1c7.6,0,14-1.3,16.6-5.1c3.8-3.8,5.1-8.9,5.1-15.3V449c0-7.6-1.3-12.7-5.1-15.3c-3.8-3.8-8.9-5.1-16.6-5.1
						h-86.6c-2.5,0-2.5,1.3-2.5,2.5V479.6L1750.7,479.6z"/>
					<path class="st0" d="M1978.7,395.6c3.8,0,5.1,1.3,5.1,5.1v93c0,6.4,0,11.5,1.3,15.3c1.3,3.8,2.5,7.6,5.1,10.2
						c2.6,2.6,5.1,3.8,8.9,5.1c3.8,1.3,8.9,1.3,15.3,1.3h65c6.4,0,11.5,0,15.3-1.3s7.6-2.5,8.9-5.1c2.5-2.5,3.8-6.4,5.1-10.2
						c1.3-3.8,1.3-8.9,1.3-15.3v-93c0-3.8,1.3-5.1,5.1-5.1h25.5c3.8,0,5.1,1.3,5.1,5.1v96.8c0,11.5-1.3,20.4-3.8,28
						c-2.5,7.6-6.4,14-11.5,19.1c-5.1,5.1-11.5,8.9-20.4,10.2c-8.9,2.5-17.8,3.8-30.6,3.8h-67.5c-11.5,0-21.7-1.3-30.6-3.8
						c-7.6-2.5-15.3-6.4-20.4-10.2c-5.1-5.1-8.9-11.5-11.5-19.1c-2.5-7.6-3.8-17.8-3.8-28v-96.8c0-3.8,1.3-5.1,5.1-5.1h25.5H1978.7
						L1978.7,395.6z"/>
					<path class="st0" d="M2246.1,395.6c3.8,0,6.4,0,8.9,1.3c2.5,0,5.1,1.3,6.4,2.5c1.3,1.3,3.8,2.5,5.1,5.1
						c1.3,2.5,2.5,5.1,5.1,8.9l48.4,112.1c1.3,1.3,1.3,2.5,3.8,2.5h2.5c1.3,0,2.5-1.3,3.8-2.5l48.4-112.1c1.3-3.8,2.5-6.4,5.1-8.9
						c1.3-2.5,2.5-3.8,5.1-5.1c1.3-1.3,3.8-2.5,6.4-2.5s5.1-1.3,8.9-1.3h25.5c7.6,0,14,1.3,16.6,5.1c2.5,3.8,3.8,10.2,3.8,19.1
						v133.7c0,3.8-1.3,5.1-5.1,5.1h-24.2c-3.8,0-5.1-1.3-5.1-5.1V431.3c0-1.3-1.3-2.5-1.3-2.5h-2.5c-1.3,0-2.5,1.3-2.5,1.3
						l-47.1,104.4c-1.3,3.8-3.8,7.6-6.4,10.2c-2.6,2.6-3.8,5.1-6.4,7.6c-2.5,1.3-5.1,3.8-7.6,3.8c-2.5,1.3-6.4,1.3-10.2,1.3H2320
						c-3.8,0-7.6,0-10.2-1.3s-5.1-2.5-7.6-3.8s-3.8-3.8-6.4-7.6c-2.5-2.5-3.8-6.4-6.4-10.2l-47.1-104.4c0-1.3-1.3-1.3-2.5-1.3h-2.5
						c-1.3,0-1.3,1.3-1.3,2.5v122.3c0,3.8-1.3,5.1-5.1,5.1h-24.3c-3.8,0-5.1-1.3-5.1-5.1V419.8c0-8.9,1.3-15.3,3.8-19.1
						s8.9-5.1,16.6-5.1h25.5H2246.1z"/>
				</g>
			</g>
		</g>
	</g>
</g>
<text transform="matrix(1 0 0 1 640.4199 151.3433)"><tspan x="0" y="0" class="st0 st1 st2">NETWORK NOT SUPPORTED YET. </tspan><tspan x="0" y="141.7" class="st0 st1 st2">Please switch to</tspan></text>
<path class="st3" d="M595.9,482.9L360.3,79.4c-19.7-19.7-51.5-19.7-71.2,0L53.5,482.9c-19.7,19.6-19.7,51.5,0,71.2h542.4
	C615.6,534.4,615.6,502.5,595.9,482.9L595.9,482.9z M303,224.3c0-15.6,12.6-28.2,28.2-28.2c15.6,0,28.2,12.6,28.2,28.2V356
	c0,15.6-12.6,28.2-28.2,28.2c-15.6,0-28.2-12.6-28.2-28.2V224.3L303,224.3z M331.4,478.5c-15.6,0-28.2-12.6-28.2-28.2
	c0-15.6,12.6-28.2,28.2-28.2c15.6,0,28.2,12.6,28.2,28.2C359.6,465.9,347,478.5,331.4,478.5z"/>
</svg>
