<?xml version="1.0" encoding="utf-8"?>
<!-- Generator: Adobe Illustrator 27.7.0, SVG Export Plug-In . SVG Version: 6.00 Build 0)  -->
<svg version="1.1" id="Layer_2_00000047764717840217133120000011769875464314978176_"
	 xmlns="http://www.w3.org/2000/svg" xmlns:xlink="http://www.w3.org/1999/xlink" x="0px" y="0px" viewBox="0 0 656.3 680.1"
	 style="enable-background:new 0 0 656.3 680.1;" xml:space="preserve">
<style type="text/css">
	.st0{fill:#FF9100;}
</style>
<path class="st0" d="M595.9,482.9L360.3,79.4c-19.7-19.7-51.5-19.7-71.2,0L53.5,482.9c-19.7,19.6-19.7,51.5,0,71.2h542.4
	C615.6,534.4,615.6,502.5,595.9,482.9L595.9,482.9z M303,224.3c0-15.6,12.6-28.2,28.2-28.2c15.6,0,28.2,12.6,28.2,28.2V356
	c0,15.6-12.6,28.2-28.2,28.2c-15.6,0-28.2-12.6-28.2-28.2V224.3L303,224.3z M331.4,478.5c-15.6,0-28.2-12.6-28.2-28.2
	c0-15.6,12.6-28.2,28.2-28.2c15.6,0,28.2,12.6,28.2,28.2C359.6,465.9,347,478.5,331.4,478.5z"/>
</svg>
