<svg width="25" height="24" viewBox="0 0 25 24" fill="none" xmlns="http://www.w3.org/2000/svg">
<path d="M21.3504 9.20926C20.9911 9.21175 20.6359 9.28885 20.3056 9.43581C19.9752 9.58276 19.6763 9.79669 19.4261 10.0652C17.37 8.62667 14.9572 7.83998 12.4805 7.80029L13.8837 1.1094L18.3537 2.1532C18.3537 2.70686 18.5648 3.23795 18.9407 3.62944C19.3166 4.02094 19.8265 4.24079 20.3582 4.24079C20.7111 4.23525 21.0565 4.13278 21.3592 3.94365C21.6619 3.75453 21.9111 3.48558 22.082 3.16387C22.2528 2.84215 22.3392 2.47897 22.3321 2.11141C22.325 1.74384 22.2247 1.38497 22.0416 1.07067C21.8585 0.756368 21.599 0.498013 21.2892 0.321717C20.9794 0.14542 20.6305 0.0573847 20.2777 0.0666291C19.9248 0.0758736 19.5804 0.18192 19.2796 0.374212C18.9787 0.566505 18.7318 0.838152 18.5641 1.16165L13.6332 0.0133691C13.5726 -0.00192779 13.5095 -0.0040436 13.448 0.00674348C13.3864 0.0175306 13.3277 0.0411829 13.2752 0.0763128C13.2227 0.111443 13.1778 0.157317 13.1428 0.211119C13.1079 0.264921 13.0837 0.325457 13.0719 0.389247L11.5284 7.7585C9.06436 7.82824 6.66997 8.62446 4.62308 10.0548C4.34821 9.76223 4.01525 9.53591 3.64752 9.39147C3.27978 9.24701 2.88623 9.18804 2.49431 9.21869C2.10238 9.24933 1.72144 9.36881 1.37853 9.56883C1.03563 9.76885 0.739003 10.0444 0.509161 10.3764C0.279319 10.7084 0.121777 11.0887 0.0479262 11.4908C-0.0259241 11.8928 -0.0142418 12.3068 0.081693 12.7038C0.177628 13.1007 0.355564 13.4711 0.603365 13.7889C0.851167 14.1066 1.16266 14.364 1.51605 14.5432C1.42318 14.9782 1.37957 15.4232 1.38587 15.8688C1.38587 20.3571 6.16643 24 12.0395 24C17.9127 24 22.7336 20.3571 22.7336 15.8688C22.7353 15.4147 22.6812 14.9622 22.5731 14.5223C23.115 14.2372 23.5493 13.7705 23.8058 13.1974C24.0623 12.6243 24.1264 11.9779 23.9876 11.3623C23.8488 10.7467 23.5151 10.1976 23.0404 9.80327C22.5657 9.40898 21.9776 9.1924 21.3704 9.18836L21.3504 9.20926ZM5.58519 14.8564C5.58519 14.4435 5.70285 14.0397 5.9231 13.6964C6.14336 13.3531 6.4563 13.0855 6.82257 12.9275C7.18884 12.7695 7.59185 12.7282 7.98068 12.8088C8.36951 12.8893 8.72681 13.0882 9.00714 13.3801C9.28747 13.6721 9.47838 14.0439 9.55573 14.4489C9.63307 14.8538 9.59317 15.2738 9.44146 15.6553C9.28974 16.0367 9.03287 16.3626 8.70324 16.592C8.3736 16.8214 7.98611 16.9439 7.58967 16.9439C7.05805 16.9439 6.54811 16.7238 6.17219 16.3323C5.79628 15.9408 5.58519 15.41 5.58519 14.8564ZM16.4495 19.8664C14.6054 21.8183 9.43374 21.8183 7.54954 19.8664C7.45285 19.7794 7.39242 19.6569 7.38119 19.5244C7.36997 19.3919 7.40877 19.2599 7.48934 19.1567C7.52911 19.1044 7.57881 19.0611 7.63518 19.0295C7.69154 18.9978 7.75344 18.9785 7.81722 18.9727C7.88101 18.9668 7.94531 18.9745 8.00612 18.9953C8.06694 19.0162 8.12311 19.0498 8.17104 19.094H8.22096C9.63411 20.6283 14.3046 20.6492 15.7779 19.094C15.827 19.0517 15.884 19.0202 15.945 19.0009C16.006 18.9817 16.07 18.9753 16.1334 18.9821C16.1968 18.9889 16.2582 19.0087 16.3142 19.0404C16.3702 19.0722 16.4197 19.1153 16.4596 19.1671C16.5035 19.2134 16.5381 19.2685 16.5614 19.3289C16.5846 19.3893 16.5961 19.4539 16.5951 19.519C16.5942 19.5841 16.5807 19.6482 16.5557 19.7079C16.5307 19.7675 16.4947 19.8214 16.4495 19.8664ZM16.4495 16.9648C16.0531 16.9648 15.6654 16.8423 15.3357 16.6129C15.0061 16.3835 14.7492 16.0574 14.5975 15.6759C14.4458 15.2944 14.4061 14.8747 14.4835 14.4698C14.5608 14.0648 14.7517 13.693 15.0321 13.401C15.3124 13.109 15.6694 12.9102 16.0583 12.8297C16.4471 12.7491 16.8504 12.7904 17.2166 12.9484C17.5829 13.1064 17.8958 13.3739 18.1161 13.7172C18.3364 14.0606 18.454 14.4644 18.454 14.8772C18.454 15.4309 18.2427 15.9617 17.8668 16.3532C17.4908 16.7447 16.9812 16.9648 16.4495 16.9648Z" fill="white"/>
</svg>
