<?xml version="1.0" encoding="utf-8"?>
<!-- Generator: Adobe Illustrator 26.2.1, SVG Export Plug-In . SVG Version: 6.00 Build 0)  -->
<svg version="1.1" id="Layer_8" xmlns="http://www.w3.org/2000/svg" xmlns:xlink="http://www.w3.org/1999/xlink" x="0px" y="0px"
	 viewBox="0 0 2555.4 680.1" style="enable-background:new 0 0 2555.4 680.1;" xml:space="preserve">
<style type="text/css">
	.st0{fill:#FFFFFF;}
	.st1{opacity:0.6;fill:#EFEFEF;enable-background:new    ;}
	.st2{opacity:0.45;fill:#D3D3D3;enable-background:new    ;}
	.st3{opacity:0.8;fill:#D3D3D3;enable-background:new    ;}
</style>
<g>
	<path class="st0" d="M769,631c-5.4-2.3-9.7-5.6-12.9-9.8c-3.2-4.2-4.9-9-5.2-14.4h15.3c0.4,4.5,2.5,8.1,6.3,10.9
		c3.7,2.8,8.7,4.2,14.7,4.2c5.6,0,10.1-1.2,13.4-3.7c3.3-2.5,4.9-5.6,4.9-9.4c0-3.9-1.7-6.8-5.2-8.7c-3.5-1.9-8.9-3.8-16.1-5.6
		c-6.6-1.7-12-3.5-16.2-5.3c-4.2-1.8-7.8-4.5-10.8-8c-3-3.5-4.5-8.2-4.5-13.9c0-4.6,1.4-8.7,4.1-12.5c2.7-3.8,6.6-6.8,11.6-9
		c5-2.2,10.7-3.3,17.1-3.3c9.9,0,17.9,2.5,24,7.5c6.1,5,9.3,11.8,9.8,20.5h-14.8c-0.3-4.7-2.2-8.4-5.6-11.2c-3.4-2.8-8-4.2-13.8-4.2
		c-5.3,0-9.6,1.1-12.7,3.4c-3.2,2.3-4.7,5.3-4.7,9c0,2.9,0.9,5.4,2.9,7.3c1.9,1.9,4.3,3.4,7.2,4.6c2.9,1.1,6.9,2.4,12,3.8
		c6.4,1.7,11.6,3.4,15.6,5.1c4,1.7,7.5,4.2,10.3,7.6c2.9,3.4,4.4,7.8,4.5,13.2c0,4.9-1.4,9.3-4.1,13.2c-2.7,3.9-6.5,7-11.5,9.2
		c-4.9,2.2-10.6,3.3-17,3.3C780.6,634.5,774.4,633.3,769,631z"/>
	<path class="st0" d="M921.8,593.9h-71.4c0.5,8.8,3.6,15.7,9,20.6c5.5,4.9,12.1,7.4,20,7.4c6.4,0,11.8-1.5,16-4.5c4.3-3,7.3-7,9-12
		h16c-2.4,8.6-7.2,15.6-14.3,20.9s-16.1,8.1-26.7,8.1c-8.5,0-16-1.9-22.7-5.7c-6.7-3.8-11.9-9.2-15.7-16.2c-3.8-7-5.7-15.1-5.7-24.4
		c0-9.2,1.8-17.3,5.5-24.3c3.7-6.9,8.9-12.3,15.6-16c6.7-3.7,14.4-5.6,23.1-5.6c8.5,0,16,1.8,22.5,5.5c6.5,3.7,11.5,8.8,15.1,15.2
		c3.5,6.5,5.3,13.8,5.3,21.9C922.3,587.8,922.1,590.8,921.8,593.9z M903.2,567.3c-2.5-4.1-5.9-7.2-10.2-9.3c-4.3-2.1-9-3.2-14.3-3.2
		c-7.5,0-13.9,2.4-19.1,7.2c-5.3,4.8-8.3,11.4-9,19.9H907C907,576.2,905.7,571.4,903.2,567.3z"/>
	<path class="st0" d="M969.8,547.4c5.8-3.4,12.6-5.1,20.3-5.1c7.9,0,15.1,1.9,21.6,5.7c6.5,3.8,11.5,9.2,15.2,16
		c3.7,6.9,5.5,14.9,5.5,24c0,9-1.8,17.1-5.5,24.1c-3.7,7.1-8.8,12.5-15.2,16.5c-6.5,3.9-13.7,5.9-21.6,5.9c-7.6,0-14.3-1.7-20.1-5.1
		c-5.8-3.4-10.2-7.7-13.3-12.8v58.8h-14.8V543.7h14.8v16.5C959.6,555.1,964,550.8,969.8,547.4z M1013.2,570.5
		c-2.7-5-6.4-8.8-11-11.4c-4.6-2.6-9.7-3.9-15.2-3.9c-5.4,0-10.5,1.3-15.1,4c-4.6,2.7-8.3,6.5-11.1,11.6c-2.8,5.1-4.2,10.9-4.2,17.5
		c0,6.7,1.4,12.6,4.2,17.7c2.8,5.1,6.5,8.9,11.1,11.6c4.6,2.7,9.6,4,15.1,4c5.5,0,10.6-1.3,15.2-4c4.6-2.7,8.3-6.5,11-11.6
		c2.7-5.1,4.1-11,4.1-17.8C1017.3,581.3,1015.9,575.5,1013.2,570.5z"/>
	<path class="st0" d="M1068.2,628.8c-6.8-3.8-12.1-9.2-16-16.2c-3.9-7-5.8-15.1-5.8-24.4c0-9.1,2-17.2,5.9-24.2
		c4-7,9.4-12.4,16.2-16.1c6.8-3.7,14.5-5.6,23-5.6c8.5,0,16.1,1.9,23,5.6c6.8,3.7,12.2,9.1,16.2,16c4,7,5.9,15,5.9,24.3
		c0,9.2-2,17.4-6.1,24.4c-4.1,7-9.6,12.4-16.5,16.2c-7,3.8-14.7,5.7-23.1,5.7C1082.6,634.5,1075,632.6,1068.2,628.8z M1105.9,617.7
		c4.7-2.5,8.4-6.2,11.3-11.2c2.9-5,4.3-11.1,4.3-18.2s-1.4-13.3-4.2-18.2c-2.8-5-6.5-8.7-11.1-11.2c-4.6-2.4-9.5-3.7-14.8-3.7
		c-5.4,0-10.4,1.2-14.9,3.7c-4.5,2.4-8.1,6.2-10.8,11.2c-2.7,5-4.1,11.1-4.1,18.2c0,7.3,1.3,13.4,4,18.4c2.7,5,6.2,8.7,10.7,11.2
		c4.5,2.4,9.3,3.7,14.7,3.7C1096.3,621.5,1101.3,620.2,1105.9,617.7z"/>
	<path class="st0" d="M1171.1,512.5V633h-14.8V512.5H1171.1z"/>
	<path class="st0" d="M1196.8,526.3c-2-2-2.9-4.3-2.9-7.2c0-2.8,1-5.2,2.9-7.2c2-2,4.3-2.9,7.2-2.9c2.7,0,5,1,6.9,2.9
		c1.9,2,2.9,4.3,2.9,7.2c0,2.8-1,5.2-2.9,7.2c-1.9,2-4.2,2.9-6.9,2.9C1201.2,529.2,1198.8,528.3,1196.8,526.3z M1211.2,543.7V633
		h-14.8v-89.3H1211.2z"/>
	<path class="st0" d="M1236.4,564c3.7-6.9,8.8-12.2,15.2-16c6.5-3.8,13.7-5.7,21.6-5.7c7.8,0,14.6,1.7,20.4,5.1
		c5.8,3.4,10,7.6,12.9,12.7v-16.3h15V633h-15v-16.6c-2.9,5.2-7.3,9.5-13.1,13c-5.8,3.4-12.6,5.1-20.3,5.1c-7.9,0-15.1-2-21.5-5.9
		c-6.4-3.9-11.5-9.4-15.2-16.5c-3.7-7.1-5.5-15.1-5.5-24.1C1230.9,578.9,1232.7,570.9,1236.4,564z M1302.4,570.6
		c-2.7-5-6.4-8.8-11-11.5c-4.6-2.7-9.7-4-15.2-4c-5.5,0-10.6,1.3-15.2,3.9c-4.6,2.6-8.2,6.4-10.9,11.4c-2.7,5-4.1,10.9-4.1,17.6
		c0,6.8,1.4,12.8,4.1,17.8c2.7,5.1,6.4,8.9,10.9,11.6c4.6,2.7,9.6,4,15.2,4c5.5,0,10.6-1.3,15.2-4c4.6-2.7,8.3-6.5,11-11.6
		c2.7-5.1,4.1-10.9,4.1-17.7C1306.5,581.5,1305.1,575.6,1302.4,570.6z"/>
	<path class="st0" d="M1408.2,556v52.6c0,4.3,0.9,7.4,2.8,9.2c1.8,1.8,5.1,2.7,9.6,2.7h10.9V633h-13.4c-8.3,0-14.4-1.9-18.6-5.7
		c-4.1-3.8-6.2-10-6.2-18.7V556h-11.6v-12.2h11.6v-22.5h14.8v22.5h23.3V556H1408.2z"/>
	<path class="st0" d="M1530.4,593.9H1459c0.5,8.8,3.6,15.7,9,20.6c5.5,4.9,12.1,7.4,20,7.4c6.4,0,11.8-1.5,16-4.5c4.3-3,7.3-7,9-12
		h16c-2.4,8.6-7.2,15.6-14.3,20.9s-16.1,8.1-26.7,8.1c-8.5,0-16-1.9-22.7-5.7c-6.7-3.8-11.9-9.2-15.7-16.2c-3.8-7-5.7-15.1-5.7-24.4
		c0-9.2,1.8-17.3,5.5-24.3c3.7-6.9,8.9-12.3,15.6-16c6.7-3.7,14.4-5.6,23.1-5.6c8.5,0,16,1.8,22.5,5.5c6.5,3.7,11.5,8.8,15.1,15.2
		c3.5,6.5,5.3,13.8,5.3,21.9C1530.8,587.8,1530.7,590.8,1530.4,593.9z M1511.8,567.3c-2.5-4.1-5.9-7.2-10.2-9.3
		c-4.3-2.1-9-3.2-14.3-3.2c-7.5,0-13.9,2.4-19.1,7.2c-5.3,4.8-8.3,11.4-9,19.9h56.4C1515.5,576.2,1514.3,571.4,1511.8,567.3z"/>
	<path class="st0" d="M1563.6,631c-5.4-2.3-9.7-5.6-12.9-9.8c-3.2-4.2-4.9-9-5.2-14.4h15.3c0.4,4.5,2.5,8.1,6.3,10.9
		c3.7,2.8,8.7,4.2,14.7,4.2c5.6,0,10.1-1.2,13.4-3.7c3.3-2.5,4.9-5.6,4.9-9.4c0-3.9-1.7-6.8-5.2-8.7c-3.5-1.9-8.9-3.8-16.1-5.6
		c-6.6-1.7-12-3.5-16.2-5.3c-4.2-1.8-7.8-4.5-10.8-8c-3-3.5-4.5-8.2-4.5-13.9c0-4.6,1.4-8.7,4.1-12.5c2.7-3.8,6.6-6.8,11.6-9
		c5-2.2,10.7-3.3,17.1-3.3c9.9,0,17.9,2.5,24,7.5c6.1,5,9.3,11.8,9.8,20.5H1599c-0.3-4.7-2.2-8.4-5.6-11.2c-3.4-2.8-8-4.2-13.8-4.2
		c-5.3,0-9.6,1.1-12.7,3.4c-3.2,2.3-4.7,5.3-4.7,9c0,2.9,1,5.4,2.9,7.3c1.9,1.9,4.3,3.4,7.2,4.6c2.9,1.1,6.9,2.4,12,3.8
		c6.4,1.7,11.6,3.4,15.6,5.1c4,1.7,7.5,4.2,10.3,7.6c2.9,3.4,4.4,7.8,4.5,13.2c0,4.9-1.4,9.3-4.1,13.2c-2.7,3.9-6.5,7-11.5,9.2
		c-4.9,2.2-10.6,3.3-17,3.3C1575.2,634.5,1569,633.3,1563.6,631z"/>
	<path class="st0" d="M1653.5,556v52.6c0,4.3,0.9,7.4,2.8,9.2c1.8,1.8,5.1,2.7,9.6,2.7h10.9V633h-13.4c-8.3,0-14.4-1.9-18.6-5.7
		c-4.1-3.8-6.2-10-6.2-18.7V556h-11.6v-12.2h11.6v-22.5h14.8v22.5h23.3V556H1653.5z"/>
	<path class="st0" d="M1764.7,552c6.7,6.6,10.1,16,10.1,28.4V633h-14.7v-50.5c0-8.9-2.2-15.7-6.7-20.4c-4.5-4.7-10.5-7.1-18.2-7.1
		c-7.8,0-14,2.4-18.7,7.3c-4.6,4.9-6.9,12-6.9,21.3V633h-14.8v-89.3h14.8v12.7c2.9-4.6,6.9-8.1,12-10.6c5.1-2.5,10.6-3.7,16.7-3.7
		C1749.1,542.1,1757.9,545.4,1764.7,552z"/>
	<path class="st0" d="M1880,593.9h-71.4c0.5,8.8,3.6,15.7,9,20.6c5.5,4.9,12.1,7.4,20,7.4c6.4,0,11.8-1.5,16-4.5c4.3-3,7.3-7,9-12
		h16c-2.4,8.6-7.2,15.6-14.3,20.9s-16.1,8.1-26.7,8.1c-8.5,0-16-1.9-22.7-5.7c-6.7-3.8-11.9-9.2-15.7-16.2c-3.8-7-5.7-15.1-5.7-24.4
		c0-9.2,1.8-17.3,5.5-24.3c3.7-6.9,8.9-12.3,15.6-16c6.7-3.7,14.4-5.6,23.1-5.6c8.5,0,16,1.8,22.5,5.5c6.5,3.7,11.5,8.8,15.1,15.2
		c3.5,6.5,5.3,13.8,5.3,21.9C1880.5,587.8,1880.3,590.8,1880,593.9z M1861.4,567.3c-2.5-4.1-5.9-7.2-10.2-9.3
		c-4.3-2.1-9-3.2-14.3-3.2c-7.5,0-13.9,2.4-19.1,7.2c-5.3,4.8-8.3,11.4-9,19.9h56.4C1865.2,576.2,1863.9,571.4,1861.4,567.3z"/>
	<path class="st0" d="M1918.1,556v52.6c0,4.3,0.9,7.4,2.8,9.2c1.8,1.8,5.1,2.7,9.6,2.7h10.9V633h-13.4c-8.3,0-14.4-1.9-18.6-5.7
		c-4.1-3.8-6.2-10-6.2-18.7V556h-11.6v-12.2h11.6v-22.5h14.8v22.5h23.3V556H1918.1z"/>
</g>
<path class="st1" d="M313.9,267.4l-193.4,87.9l193.4,114.5l193.6-114.5L313.9,267.4z"/>
<path class="st2" d="M120.5,355.3l193.4,114.5V34.3L120.5,355.3z"/>
<path class="st3" d="M313.9,34.3v435.5l193.4-114.5L313.9,34.3z"/>
<path class="st2" d="M120.5,392.1l193.4,272.5V506.4L120.5,392.1z"/>
<path class="st3" d="M313.9,506.4v158.2l193.6-272.5L313.9,506.4z"/>
<path class="st0" d="M889.5,390.5c-0.1,4-3.3,7.2-7.3,7.1H741.3c3.6,34.8,29.7,66.6,66.6,66.6c25.2,0,43.8-9.6,57.9-29.7
	c1.8-3.1,5.7-4.3,9-2.8c2.1,0.9,3.6,2.8,4,5.1c0.3,1.7,0,3.4-0.9,4.9c-14.1,24.6-42.3,36.9-70.2,36.9c-47.4,0-81.3-42.3-81.3-87.9
	s33.9-87.9,81.3-87.9S889.5,345.2,889.5,390.5L889.5,390.5z M874.5,383.5c-3-34.8-29.7-66.6-66.6-66.6s-63,31.8-66.6,66.6H874.5z"/>
<path class="st0" d="M1060.5,306.4c3.9,0.1,7,3.3,7.1,7.1c0.1,3.9-3,7.1-6.9,7.1c-0.1,0-0.2,0-0.2,0h-37.8v148.3
	c-0.1,3.9-3.2,7.1-7.1,7.1c-3.9-0.1-7-3.3-7.1-7.1V320.7h-36.3c-3.9,0.1-7.1-3-7.1-6.9c0-0.1,0-0.2,0-0.2c0.1-3.9,3.2-7.1,7.1-7.1
	h36.3V252c-0.1-3.4,2.3-6.4,5.6-7.1c3.8-0.8,7.5,1.6,8.3,5.4c0.1,0.5,0.2,1.1,0.2,1.6v54.6L1060.5,306.4z"/>
<path class="st0" d="M1291.2,378.1v89.7c-0.1,3.9-3.3,7-7.1,7.1c-3.9,0.1-7.1-3-7.1-6.9c0-0.1,0-0.2,0-0.2v-89.7
	c0-30.3-17.1-60.6-51-60.6c-43.5,0-62.1,37.8-59.5,76.8c0,0.9,0.6,5.5,0.6,6v67.4c0.1,3.4-2.3,6.4-5.6,7.1c-3.8,0.8-7.5-1.6-8.3-5.4
	c-0.1-0.5-0.2-1.1-0.2-1.6V172.6c0.1-3.9,3.2-7.1,7.1-7.1c3.9,0.1,7,3.3,7.1,7.1v167.1c12-21.6,33.9-36.3,59.1-36.3
	C1267.5,303.4,1291.2,339.7,1291.2,378.1L1291.2,378.1z"/>
<path class="st0" d="M1543.9,390.5c-0.1,4-3.3,7.2-7.3,7.1h-140.9c3.6,34.8,29.7,66.6,66.6,66.6c25.2,0,43.8-9.6,57.9-29.7
	c1.8-3.1,5.7-4.3,9-2.8c2.1,0.9,3.6,2.8,4,5.1c0.3,1.7,0,3.4-0.9,4.9c-14.1,24.6-42.3,36.9-70.2,36.9c-47.4,0-81.3-42.3-81.3-87.9
	s33.9-87.9,81.3-87.9C1509.4,302.8,1543.9,345.2,1543.9,390.5L1543.9,390.5z M1528.8,383.5c-3-34.8-29.7-66.6-66.6-66.6
	s-63,31.8-66.6,66.6H1528.8z"/>
<path class="st0" d="M1716.9,313c0.4,3.7-2.3,7.1-6,7.5c-0.2,0-0.4,0-0.6,0c-41.4,6-60,39.9-60,79.2v67.4c0.1,3.4-2.3,6.4-5.6,7.1
	c-3.8,0.8-7.5-1.6-8.3-5.4c-0.1-0.5-0.2-1.1-0.2-1.6V313.5c-0.1-3.4,2.3-6.4,5.6-7.1c3.8-0.8,7.5,1.6,8.3,5.4
	c0.1,0.5,0.2,1.1,0.2,1.6v31.2c11.7-19.8,34.8-38.4,59.1-38.4C1712.8,306.4,1716.9,308.8,1716.9,313L1716.9,313z"/>
<path class="st0" d="M1948.5,390.5c-0.1,4-3.3,7.2-7.3,7.1h-140.9c3.6,34.8,29.7,66.6,66.6,66.6c25.2,0,43.8-9.6,57.9-29.7
	c1.8-3.1,5.7-4.3,9-2.8c2.1,0.9,3.6,2.8,4,5.1c0.3,1.7,0,3.4-0.9,4.9c-14.1,24.6-42.3,36.9-70.2,36.9c-47.4,0-81.3-42.3-81.3-87.9
	s33.9-87.9,81.3-87.9C1914.1,302.8,1948.3,345.2,1948.5,390.5L1948.5,390.5z M1933.3,383.5c-3-34.8-29.7-66.6-66.6-66.6
	c-36.9,0-63,31.8-66.6,66.6H1933.3z"/>
<path class="st0" d="M2176,314.7v154.1c-0.1,3.9-3.3,7-7.1,7.1c-3.9,0.1-7.1-3-7.1-6.9c0-0.1,0-0.2,0-0.2v-29.3
	c-11.7,23.1-32.4,39.9-58.5,39.9c-42,0-65.1-36.3-65.1-74.7v-90.3c0-3.9,3.2-7.1,7.2-7.1c3.9,0,7.1,3.2,7.1,7.1v90.3
	c0,30.3,17.1,60.6,51,60.6c47.4,0,58.5-44.4,58.5-93.3v-57.6c0-3.9,3.2-7.1,7.1-7c0.6,0,1.3,0.1,1.9,0.3
	C2174,308.5,2176.1,311.4,2176,314.7z"/>
<path class="st0" d="M2532.7,377.5v90.3c-0.1,3.9-3.3,7-7.1,7.1c-3.9,0.1-7.1-3-7.1-6.9c0-0.1,0-0.2,0-0.2v-90.3
	c0-30.3-17.1-60-51-60c-42.3,0-58.5,45.3-58.5,80.7v69.6c-0.1,3.9-3.3,7-7.1,7.1c-3.9,0.1-7.1-3-7.1-6.9c0-0.1,0-0.2,0-0.2v-90.3
	c0-30.3-17.1-60-51-60c-42.9,0-60.6,33.9-59.1,78.6c0,0.9,0.6,3,0,3.6v67.9c0.1,3.4-2.3,6.4-5.6,7.1c-3.8,0.8-7.5-1.6-8.3-5.4
	c-0.1-0.5-0.2-1.1-0.2-1.6V313.5c-0.1-3.4,2.3-6.4,5.6-7.1c3.8-0.8,7.5,1.6,8.3,5.4c0.1,0.5,0.2,1.1,0.2,1.6v25.8
	c12-21.6,33.9-35.7,59.1-35.7c28.8,0,51,18.2,60,45c11.7-26.2,34.2-45,63.6-45C2509,303.4,2532.7,339.1,2532.7,377.5z"/>
<g>
	<path class="st0" d="M794.4,134.5c-4,2-11.9,4-22.1,4c-23.6,0-41.4-14.9-41.4-42.4c0-26.2,17.8-44,43.7-44c10.4,0,17,2.2,19.9,3.7
		l-2.6,8.8c-4.1-2-9.9-3.5-16.9-3.5c-19.6,0-32.7,12.5-32.7,34.5c0,20.5,11.8,33.7,32.2,33.7c6.6,0,13.3-1.4,17.6-3.5L794.4,134.5z"
		/>
	<path class="st0" d="M860.6,106.6c0,22.2-15.4,31.9-29.9,31.9c-16.3,0-28.8-11.9-28.8-30.9c0-20.1,13.2-31.9,29.8-31.9
		C849,75.7,860.6,88.3,860.6,106.6z M812.9,107.3c0,13.2,7.6,23.1,18.3,23.1c10.4,0,18.3-9.8,18.3-23.4c0-10.2-5.1-23.1-18-23.1
		C818.5,83.9,812.9,95.8,812.9,107.3z"/>
	<path class="st0" d="M874.4,93.3c0-6.2-0.1-11.3-0.5-16.3h9.7l0.6,9.9h0.2c3-5.7,9.9-11.3,19.9-11.3c8.3,0,21.2,5,21.2,25.6v35.9
		h-10.9v-34.7c0-9.7-3.6-17.8-13.9-17.8c-7.2,0-12.8,5.1-14.7,11.2c-0.5,1.4-0.7,3.2-0.7,5.1v36.2h-10.9V93.3z"/>
	<path class="st0" d="M943.4,93.3c0-6.2-0.1-11.3-0.5-16.3h9.7l0.6,9.9h0.2c3-5.7,9.9-11.3,19.9-11.3c8.3,0,21.2,5,21.2,25.6v35.9
		h-10.9v-34.7c0-9.7-3.6-17.8-13.9-17.8c-7.2,0-12.8,5.1-14.7,11.2c-0.5,1.4-0.7,3.2-0.7,5.1v36.2h-10.9V93.3z"/>
	<path class="st0" d="M1018.4,109.1c0.2,14.8,9.7,20.9,20.6,20.9c7.8,0,12.5-1.4,16.6-3.1l1.9,7.8c-3.9,1.7-10.4,3.7-20,3.7
		c-18.5,0-29.6-12.2-29.6-30.3s10.7-32.4,28.2-32.4c19.6,0,24.9,17.3,24.9,28.3c0,2.2-0.2,4-0.4,5.1L1018.4,109.1L1018.4,109.1z
		 M1050.5,101.3c0.1-7-2.9-17.8-15.2-17.8c-11.1,0-15.9,10.2-16.8,17.8H1050.5z"/>
	<path class="st0" d="M1117.5,135c-2.9,1.5-9.2,3.5-17.3,3.5c-18.1,0-29.9-12.3-29.9-30.7c0-18.5,12.7-31.9,32.3-31.9
		c6.5,0,12.2,1.6,15.2,3.1l-2.5,8.4c-2.6-1.5-6.7-2.9-12.7-2.9c-13.8,0-21.2,10.2-21.2,22.7c0,13.9,8.9,22.5,20.9,22.5
		c6.2,0,10.3-1.6,13.4-3L1117.5,135z"/>
	<path class="st0" d="M1145.1,59.8v17.3h15.7v8.3h-15.7v32.4c0,7.5,2.1,11.7,8.2,11.7c2.9,0,5-0.4,6.3-0.7l0.5,8.2
		c-2.1,0.9-5.5,1.5-9.7,1.5c-5.1,0-9.2-1.6-11.8-4.6c-3.1-3.2-4.2-8.6-4.2-15.7V85.4h-9.3v-8.3h9.3V62.7L1145.1,59.8z"/>
	<path class="st0" d="M1178.4,109.1c0.2,14.8,9.7,20.9,20.6,20.9c7.8,0,12.5-1.4,16.6-3.1l1.9,7.8c-3.9,1.7-10.4,3.7-20,3.7
		c-18.5,0-29.6-12.2-29.6-30.3s10.7-32.4,28.2-32.4c19.6,0,24.9,17.3,24.9,28.3c0,2.2-0.2,4-0.4,5.1L1178.4,109.1L1178.4,109.1z
		 M1210.4,101.3c0.1-7-2.9-17.8-15.2-17.8c-11.1,0-15.9,10.2-16.8,17.8H1210.4z"/>
	<path class="st0" d="M1286.5,49v72.7c0,5.3,0.1,11.4,0.5,15.5h-9.8l-0.5-10.4h-0.2c-3.4,6.7-10.7,11.8-20.5,11.8
		c-14.5,0-25.7-12.3-25.7-30.6c-0.1-20,12.3-32.3,27-32.3c9.2,0,15.4,4.3,18.1,9.2h0.2V49H1286.5z M1275.5,101.5
		c0-1.4-0.1-3.2-0.5-4.6c-1.6-7-7.6-12.7-15.8-12.7c-11.3,0-18,9.9-18,23.2c0,12.2,6,22.2,17.8,22.2c7.3,0,14-4.8,16-13
		c0.4-1.5,0.5-3,0.5-4.7V101.5z"/>
	<path class="st0" d="M1344.1,59.8v17.3h15.7v8.3h-15.7v32.4c0,7.5,2.1,11.7,8.2,11.7c2.9,0,5-0.4,6.3-0.7l0.5,8.2
		c-2.1,0.9-5.5,1.5-9.7,1.5c-5.1,0-9.2-1.6-11.8-4.6c-3.1-3.2-4.2-8.6-4.2-15.7V85.4h-9.3v-8.3h9.3V62.7L1344.1,59.8z"/>
	<path class="st0" d="M1425.8,106.6c0,22.2-15.4,31.9-29.9,31.9c-16.3,0-28.8-11.9-28.8-30.9c0-20.1,13.2-31.9,29.8-31.9
		C1414.1,75.7,1425.8,88.3,1425.8,106.6z M1378,107.3c0,13.2,7.6,23.1,18.3,23.1c10.4,0,18.3-9.8,18.3-23.4c0-10.2-5.1-23.1-18-23.1
		C1383.6,83.9,1378,95.8,1378,107.3z"/>
</g>
</svg>
