<svg width="24" height="24" viewBox="0 0 24 24" fill="none" xmlns="http://www.w3.org/2000/svg">
<path fill-rule="evenodd" clip-rule="evenodd" d="M7 1.25C3.82436 1.25 1.25 3.82436 1.25 7V17C1.25 20.1756 3.82436 22.75 7 22.75H17C20.1756 22.75 22.75 20.1756 22.75 17V7C22.75 3.82436 20.1756 1.25 17 1.25H7ZM15.9 9.85001C15.3477 9.85001 14.9 10.2977 14.9 10.85V17.4H18.69V10.85C18.69 10.2977 18.2423 9.85001 17.69 9.85001H15.9ZM5.32001 13.15C5.32001 12.5977 5.76772 12.15 6.32001 12.15H8.11001C8.66229 12.15 9.11001 12.5977 9.11001 13.15V17.41H5.32001V13.15ZM11.2412 6.59998H12.7613C13.3913 6.59998 13.8913 7.10999 13.8913 7.73999V17.4H10.1013V7.73999C10.1013 7.10999 10.6112 6.59998 11.2412 6.59998Z" fill="#8E9BAE"/>
</svg>
