<svg width="274" height="36" viewBox="0 0 274 36" fill="none" xmlns="http://www.w3.org/2000/svg">
<path d="M19.5737 35.6796H0.122803V30.3742H19.5737C22.3309 30.3742 24.6601 28.6773 24.6601 26.6691V18.8184H29.8919V26.6691C29.8919 31.6371 25.2626 35.6796 19.5737 35.6796Z" fill="white"/>
<path d="M5.2318 18.6858H0V11.143C0 5.37409 4.62931 0.679688 10.3182 0.679688H29.9387V5.98505H10.3182C7.51415 5.98505 5.2318 8.29949 5.2318 11.143V18.6858Z" fill="white"/>
<path d="M17.9811 9.75391H12.7493V26.5791H17.9811V9.75391Z" fill="white"/>
<path d="M45.6357 29.9159V10.9597H39.9209V6.98438H55.8182V10.9597H50.076V29.9142H45.6357V29.9159Z" fill="white"/>
<path d="M58.8047 29.9159V6H63.0253V17.2561C63.5568 16.6631 64.2271 16.1799 65.0396 15.8032C65.8536 15.4281 66.7485 15.2414 67.7257 15.2414C68.795 15.2414 69.7399 15.4773 70.5637 15.9506C71.3859 16.424 72.0304 17.0857 72.4972 17.9375C72.9624 18.7892 73.1966 19.7802 73.1966 20.9104V29.9159H68.9888V21.8145C68.9888 20.7957 68.7272 19.9997 68.2006 19.4247C67.6757 18.8498 66.9552 18.5632 66.0426 18.5632C65.4208 18.5632 64.8877 18.6959 64.4403 18.9596C63.9929 19.2249 63.644 19.5738 63.3985 20.0095C63.1513 20.4452 63.0286 20.9399 63.0286 21.4968V29.9192H58.8079L58.8047 29.9159Z" fill="white"/>
<path d="M84.61 30.3596C83.0933 30.3596 81.7332 30.0255 80.5266 29.3588C79.32 28.6922 78.3703 27.7913 77.6757 26.6562C76.9812 25.5211 76.6355 24.2353 76.6355 22.8004C76.6355 21.7439 76.8326 20.7579 77.2251 19.8406C77.6176 18.9234 78.1716 18.1191 78.8823 17.4295C79.5946 16.7399 80.4216 16.2027 81.3633 15.8178C82.305 15.4329 83.3226 15.2412 84.4194 15.2412C85.8812 15.2412 87.1637 15.5459 88.2637 16.1585C89.3653 16.7694 90.223 17.6244 90.84 18.7219C91.457 19.8193 91.7688 21.092 91.7785 22.5367C91.7688 22.6563 91.7639 22.7644 91.7591 22.8561C91.7526 22.9495 91.7381 23.1198 91.7106 23.3704H80.9531C80.9531 24.0829 81.1146 24.7103 81.4393 25.2524C81.7639 25.7946 82.2178 26.2156 82.8025 26.517C83.3872 26.8183 84.0673 26.969 84.8442 26.969C85.5759 26.969 86.2204 26.8232 86.776 26.5317C87.3333 26.2401 87.8777 25.7799 88.4075 25.1493L91.4361 26.7053C90.7786 27.8453 89.8466 28.7397 88.64 29.3883C87.4335 30.0369 86.0912 30.3613 84.61 30.3613V30.3596ZM81.0887 20.9937H87.6257C87.5336 20.4368 87.3398 19.9635 87.0426 19.5687C86.7454 19.1756 86.369 18.8726 85.9119 18.658C85.4548 18.4451 84.9395 18.3386 84.3629 18.3386C83.7523 18.3386 83.2112 18.4451 82.746 18.658C82.2808 18.8709 81.9028 19.174 81.6153 19.5687C81.3262 19.9635 81.1517 20.4368 81.0871 20.9937H81.0887Z" fill="white"/>
<path d="M102.055 30.3598C101.015 30.3598 100.05 30.2435 99.1636 30.0125C98.2768 29.7816 97.4853 29.4851 96.7859 29.1231C96.0865 28.7628 95.4857 28.3926 94.9833 28.0126C94.481 27.6326 94.0836 27.3001 93.7913 27.0118L96.0672 23.2871C96.3692 23.5557 96.7294 23.8571 97.1494 24.1896C97.5693 24.5221 98.0394 24.8431 98.5611 25.1494C99.0812 25.4541 99.6465 25.7047 100.254 25.8996C100.863 26.0945 101.509 26.1912 102.192 26.1912C102.832 26.1912 103.397 26.0912 103.887 25.8931C104.374 25.6932 104.762 25.3902 105.051 24.9823C105.339 24.5745 105.482 24.07 105.482 23.4672C105.482 22.93 105.366 22.4664 105.134 22.0766C104.901 21.6868 104.562 21.3379 104.119 21.0283C103.677 20.7171 103.134 20.4124 102.489 20.111C101.843 19.8097 101.112 19.4788 100.289 19.1168C99.6789 18.84 99.0958 18.5222 98.5417 18.1651C97.9893 17.8081 97.4983 17.3937 97.0702 16.9219C96.6406 16.4486 96.2998 15.9146 96.0494 15.3167C95.7974 14.7189 95.673 14.0506 95.673 13.3086C95.673 12.4274 95.8459 11.5854 96.1931 10.7796C96.5404 9.97369 97.0363 9.25626 97.6808 8.62564C98.3253 7.99666 99.0925 7.49545 99.9825 7.12527C100.873 6.75509 101.863 6.56836 102.95 6.56836C103.772 6.56836 104.594 6.67974 105.416 6.9025C106.238 7.12527 107.009 7.41682 107.726 7.77718C108.443 8.13753 109.047 8.53228 109.542 8.95815L107.692 12.488C107.3 12.1555 106.854 11.8492 106.355 11.5707C105.859 11.2922 105.327 11.0695 104.765 10.904C104.205 10.737 103.635 10.6534 103.06 10.6534C102.412 10.6534 101.861 10.7697 101.409 11.0007C100.955 11.2316 100.611 11.5412 100.373 11.9245C100.136 12.3094 100.016 12.7369 100.016 13.2103C100.016 13.5903 100.094 13.9163 100.251 14.1898C100.406 14.4633 100.63 14.7025 100.921 14.9056C101.213 15.1103 101.565 15.302 101.977 15.4822C102.388 15.6623 102.842 15.8556 103.334 16.0587C104.394 16.5141 105.353 16.9612 106.213 17.4068C107.07 17.8523 107.807 18.3453 108.417 18.8875C109.03 19.4296 109.498 20.0603 109.823 20.7777C110.147 21.4951 110.309 22.36 110.309 23.3706C110.309 24.8333 109.963 26.0896 109.273 27.1363C108.585 28.1829 107.623 28.9823 106.39 29.5326C105.156 30.083 103.712 30.3598 102.058 30.3598H102.055Z" fill="white"/>
<path d="M119.089 30.3597C117.692 30.3597 116.608 29.9109 115.836 29.0117C115.063 28.1124 114.678 26.8528 114.678 25.2312V18.9218H112.787V15.6836H114.678V10.3618H118.871V15.6852H121.953V18.9235H118.871V24.9135C118.871 25.4507 118.975 25.8586 119.186 26.137C119.396 26.4155 119.702 26.5547 120.104 26.5547C120.543 26.5547 120.963 26.4073 121.365 26.1108L122.422 29.5293C121.945 29.7881 121.414 29.9928 120.824 30.1402C120.235 30.2876 119.656 30.363 119.091 30.363L119.089 30.3597Z" fill="white"/>
<path d="M131.848 30.3598C130.561 30.3598 129.388 30.0338 128.333 29.3803C127.279 28.7267 126.443 27.8291 125.826 26.6842C125.209 25.5393 124.901 24.2404 124.901 22.7858C124.901 21.3313 125.2 20.0652 125.797 18.9301C126.397 17.795 127.219 16.8957 128.264 16.234C129.311 15.5706 130.504 15.2397 131.848 15.2397C132.845 15.2397 133.773 15.4314 134.638 15.8163C135.5 16.2012 136.206 16.7352 136.755 17.4215V15.6836H140.961V29.9143H136.755V28.0388C136.116 28.7792 135.379 29.3524 134.549 29.7554C133.717 30.1583 132.816 30.3598 131.848 30.3598ZM133.095 26.7317C133.825 26.7317 134.471 26.563 135.033 26.2239C135.595 25.8865 136.038 25.423 136.363 24.8349C136.687 24.2469 136.849 23.5688 136.849 22.7989C136.849 22.0291 136.687 21.3625 136.363 20.7695C136.038 20.1766 135.595 19.7114 135.033 19.3723C134.471 19.0349 133.825 18.8662 133.095 18.8662C132.365 18.8662 131.729 19.0349 131.163 19.3723C130.596 19.7114 130.149 20.1766 129.819 20.7695C129.491 21.3625 129.327 22.0389 129.327 22.7989C129.327 23.559 129.49 24.2207 129.819 24.8136C130.149 25.4066 130.596 25.875 131.163 26.2174C131.729 26.5597 132.373 26.7317 133.095 26.7317Z" fill="white"/>
<path d="M145.894 29.9159V15.6853H150.115V17.2544C150.646 16.6615 151.317 16.1783 152.129 15.8016C152.943 15.4265 153.838 15.2397 154.815 15.2397C155.885 15.2397 156.83 15.4756 157.653 15.949C158.475 16.4224 159.12 17.0841 159.587 17.9358C160.052 18.7876 160.286 19.7785 160.286 20.9087V29.9143H156.078V21.8129C156.078 20.7941 155.817 19.9997 155.29 19.4297C154.765 18.8596 154.045 18.5746 153.132 18.5746C152.51 18.5746 151.977 18.7024 151.53 18.9563C151.082 19.2118 150.734 19.5591 150.488 19.9997C150.241 20.4403 150.118 20.9382 150.118 21.4935V29.9159H145.898H145.894Z" fill="white"/>
<path d="M170.781 30.3598C169.511 30.3598 168.35 30.0371 167.3 29.3934C166.248 28.7497 165.413 27.857 164.793 26.7186C164.171 25.5786 163.861 24.2731 163.861 22.799C163.861 21.3248 164.163 20.0619 164.765 18.9219C165.369 17.7819 166.2 16.8843 167.259 16.2258C168.319 15.569 169.526 15.2398 170.877 15.2398C171.864 15.2398 172.777 15.4314 173.612 15.8163C174.447 16.2012 175.15 16.7352 175.717 17.4215V6H179.923V29.9159H175.717V28.0404C175.087 28.7726 174.345 29.341 173.497 29.7505C172.646 30.1583 171.743 30.3614 170.784 30.3614L170.781 30.3598ZM172.042 26.7317C172.772 26.7317 173.42 26.563 173.987 26.2239C174.554 25.8865 175 25.423 175.324 24.8349C175.649 24.2469 175.81 23.5721 175.81 22.8121C175.81 22.052 175.649 21.3772 175.324 20.7826C175 20.1897 174.554 19.7212 173.987 19.3789C173.42 19.0366 172.777 18.8646 172.055 18.8646C171.333 18.8646 170.689 19.0349 170.123 19.3789C169.556 19.7212 169.109 20.1897 168.779 20.7826C168.451 21.3756 168.287 22.057 168.287 22.8252C168.287 23.5934 168.445 24.2469 168.76 24.8399C169.075 25.4328 169.516 25.8963 170.081 26.2305C170.648 26.563 171.301 26.7301 172.04 26.7301L172.042 26.7317Z" fill="white"/>
<path d="M190.721 30.3598C189.434 30.3598 188.261 30.0338 187.206 29.3803C186.151 28.7267 185.316 27.8291 184.699 26.6842C184.082 25.5393 183.774 24.2404 183.774 22.7858C183.774 21.3313 184.073 20.0652 184.67 18.9301C185.269 17.795 186.092 16.8957 187.137 16.234C188.183 15.5706 189.377 15.2397 190.721 15.2397C191.717 15.2397 192.646 15.4314 193.51 15.8163C194.373 16.2012 195.079 16.7352 195.628 17.4215V15.6836H199.834V29.9143H195.628V28.0388C194.988 28.7792 194.252 29.3524 193.422 29.7554C192.59 30.1583 191.688 30.3598 190.721 30.3598ZM191.968 26.7317C192.698 26.7317 193.344 26.563 193.906 26.2239C194.468 25.8865 194.911 25.423 195.236 24.8349C195.56 24.2469 195.722 23.5688 195.722 22.7989C195.722 22.0291 195.56 21.3625 195.236 20.7695C194.911 20.1766 194.468 19.7114 193.906 19.3723C193.344 19.0349 192.698 18.8662 191.968 18.8662C191.238 18.8662 190.601 19.0349 190.036 19.3723C189.469 19.7114 189.022 20.1766 188.692 20.7695C188.364 21.3625 188.199 22.0389 188.199 22.7989C188.199 23.559 188.363 24.2207 188.692 24.8136C189.022 25.4066 189.469 25.875 190.036 26.2174C190.601 26.5597 191.246 26.7317 191.968 26.7317Z" fill="white"/>
<path d="M204.767 29.9157V15.6851H208.988V17.7276C209.509 16.93 210.144 16.3174 210.892 15.8866C211.642 15.4558 212.456 15.2412 213.333 15.2412C213.827 15.2412 214.334 15.3149 214.859 15.464C215.386 15.6114 215.835 15.8014 216.209 16.034L214.441 19.6326C214.14 19.4197 213.775 19.2509 213.352 19.1265C212.927 19.002 212.54 18.9381 212.194 18.9381C211.637 18.9381 211.113 19.0806 210.626 19.3689C210.136 19.6555 209.74 20.029 209.44 20.4876C209.138 20.9462 208.986 21.4393 208.986 21.9683V29.9174H204.765L204.767 29.9157Z" fill="white"/>
<path d="M224.35 30.3598C223.081 30.3598 221.919 30.0371 220.87 29.3934C219.818 28.7497 218.983 27.857 218.363 26.7186C217.741 25.5786 217.431 24.2731 217.431 22.799C217.431 21.3248 217.733 20.0619 218.335 18.9219C218.939 17.7819 219.77 16.8843 220.829 16.2258C221.889 15.569 223.095 15.2398 224.447 15.2398C225.434 15.2398 226.347 15.4314 227.182 15.8163C228.017 16.2012 228.72 16.7352 229.287 17.4215V6H233.493V29.9159H229.287V28.0404C228.657 28.7726 227.915 29.341 227.067 29.7505C226.216 30.1583 225.313 30.3614 224.354 30.3614L224.35 30.3598ZM225.612 26.7317C226.342 26.7317 226.99 26.563 227.557 26.2239C228.124 25.8865 228.569 25.423 228.894 24.8349C229.219 24.2469 229.38 23.5721 229.38 22.8121C229.38 22.052 229.219 21.3772 228.894 20.7826C228.569 20.1897 228.124 19.7212 227.557 19.3789C226.99 19.0366 226.347 18.8646 225.625 18.8646C224.903 18.8646 224.258 19.0349 223.693 19.3789C223.126 19.7212 222.679 20.1897 222.349 20.7826C222.021 21.3756 221.856 22.057 221.856 22.8252C221.856 23.5934 222.015 24.2469 222.33 24.8399C222.645 25.4328 223.086 25.8963 223.651 26.2305C224.218 26.563 224.871 26.7301 225.61 26.7301L225.612 26.7317Z" fill="white"/>
<path d="M241.537 30.3599C241.034 30.3599 240.574 30.2354 240.16 29.9848C239.744 29.7342 239.413 29.3984 239.167 28.9774C238.92 28.5565 238.797 28.0847 238.797 27.5671C238.797 27.0495 238.92 26.5942 239.167 26.1781C239.413 25.7605 239.744 25.4279 240.16 25.1773C240.576 24.9267 241.034 24.8022 241.537 24.8022C242.039 24.8022 242.509 24.9267 242.921 25.1773C243.331 25.4263 243.661 25.7605 243.906 26.1781C244.153 26.5958 244.276 27.0577 244.276 27.5671C244.276 28.0765 244.153 28.5565 243.906 28.9774C243.659 29.3984 243.331 29.7342 242.921 29.9848C242.509 30.2354 242.049 30.3599 241.537 30.3599Z" fill="white"/>
<path d="M251.705 12.7255C251.248 12.7255 250.831 12.6109 250.451 12.3848C250.072 12.1571 249.77 11.8492 249.545 11.461C249.322 11.0712 249.211 10.6453 249.211 10.1834C249.211 9.72149 249.324 9.29889 249.553 8.91888C249.782 8.53888 250.083 8.23585 250.458 8.00818C250.832 7.7805 251.249 7.66748 251.705 7.66748C252.16 7.66748 252.577 7.78214 252.952 8.00818C253.325 8.23585 253.627 8.53888 253.856 8.91888C254.084 9.29889 254.199 9.71985 254.199 10.1834C254.199 10.6469 254.084 11.0728 253.856 11.461C253.627 11.8508 253.325 12.1588 252.952 12.3848C252.577 12.6125 252.16 12.7255 251.705 12.7255ZM249.608 29.9159V15.6853H253.814V29.9159H249.608Z" fill="white"/>
<path d="M265.777 30.36C264.224 30.36 262.824 30.0373 261.577 29.3936C260.33 28.7498 259.343 27.8604 258.616 26.7253C257.891 25.5902 257.526 24.2815 257.526 22.7991C257.526 21.3168 257.891 20.008 258.616 18.8729C259.343 17.7378 260.328 16.8484 261.569 16.2047C262.813 15.561 264.21 15.2383 265.762 15.2383C267.314 15.2383 268.713 15.561 269.955 16.2047C271.199 16.8484 272.183 17.7378 272.908 18.8729C273.635 20.008 273.998 21.3168 273.998 22.7991C273.998 24.2815 273.635 25.5902 272.908 26.7253C272.183 27.8604 271.197 28.7498 269.955 29.3936C268.713 30.0373 267.321 30.36 265.775 30.36H265.777ZM265.777 26.7188C266.491 26.7188 267.138 26.5517 267.723 26.2176C268.308 25.885 268.77 25.4231 269.107 24.8351C269.445 24.2471 269.614 23.569 269.614 22.7991C269.614 22.0293 269.445 21.3512 269.107 20.7631C268.77 20.1751 268.308 19.7132 267.723 19.3807C267.138 19.0465 266.491 18.8795 265.777 18.8795C265.063 18.8795 264.404 19.0465 263.824 19.3807C263.244 19.7132 262.784 20.1751 262.439 20.7631C262.097 21.3512 261.926 22.0293 261.926 22.7991C261.926 23.569 262.097 24.2471 262.439 24.8351C262.784 25.4231 263.244 25.885 263.824 26.2176C264.404 26.5501 265.055 26.7188 265.777 26.7188Z" fill="white"/>
</svg>
