<svg width="24" height="24" viewBox="0 0 24 24" fill="none" xmlns="http://www.w3.org/2000/svg">
<path fill-rule="evenodd" clip-rule="evenodd" d="M7 4.75C6.68351 4.75 6.3742 4.77393 6.07284 4.82296C3.07211 5.23221 1.25 7.64568 1.25 10.8198V14.5501C1.72812 14.0908 2.29959 13.7281 2.93312 13.4931C3.62247 11.6345 5.41156 10.31 7.51001 10.31C10.2052 10.31 12.39 12.4948 12.39 15.19C12.39 17.2884 11.0655 19.0775 9.20691 19.7669C8.82044 20.8089 8.08829 21.683 7.14976 22.25H17C18.7009 22.25 20.1608 21.6364 21.1874 20.5358C22.2065 19.4433 22.75 17.9249 22.75 16.1802V16.1383C22.5808 16.2105 22.3974 16.25 22.2059 16.25H18.6765C17.3364 16.25 16.25 15.0188 16.25 13.5C16.25 11.9812 17.3364 10.75 18.6765 10.75H22.2059C22.3974 10.75 22.5808 10.7895 22.75 10.8617V10.8198C22.75 7.62367 20.8967 5.19938 17.868 4.8122C17.5676 4.76046 17.2713 4.75 17 4.75H7ZM18.6765 14.75C18.0673 14.75 17.5735 14.1904 17.5735 13.5C17.5735 12.8096 18.0673 12.25 18.6765 12.25H22.2059C22.3277 12.25 22.4265 12.3619 22.4265 12.5V14.5C22.4265 14.6381 22.3277 14.75 22.2059 14.75H18.6765Z" fill="#8E9BAE"/>
<path d="M2.58734 5.72065C3.41598 4.7046 4.60302 4.02328 6.07285 3.82282C6.3742 3.7738 6.68352 3.74986 7 3.74986H17C17.2713 3.74986 17.5676 3.76032 17.868 3.81206C18.6855 3.91656 19.4173 4.16947 20.0502 4.54589L20.0047 4.13564C19.767 1.98969 17.9176 0.354381 15.791 0.589987L5.94653 1.68069C3.93347 1.90372 2.52975 3.70828 2.58734 5.72065Z" fill="#8E9BAE"/>
<path fill-rule="evenodd" clip-rule="evenodd" d="M7.92307 18.0387C7.92307 16.1269 6.37328 14.5771 4.46153 14.5771C2.54977 14.5771 0.999988 16.1269 0.999988 18.0387C0.999988 19.9504 2.54977 21.5002 4.46153 21.5002C6.37328 21.5002 7.92307 19.9504 7.92307 18.0387Z" fill="#8E9BAE"/>
<path fill-rule="evenodd" clip-rule="evenodd" d="M7.53846 11.5C9.45022 11.5 11 13.0498 11 14.9615C11 16.5662 9.90817 17.9158 8.4269 18.308C8.43287 18.2189 8.4359 18.129 8.4359 18.0385C8.4359 15.8435 6.65652 14.0641 4.46154 14.0641C4.37095 14.0641 4.28107 14.0671 4.192 14.0731C4.58422 12.5918 5.93384 11.5 7.53846 11.5Z" fill="#8E9BAE"/>
</svg>
