<svg width="24" height="21" viewBox="0 0 24 21" fill="none" xmlns="http://www.w3.org/2000/svg">
<path d="M21.54 5.06754C22.5088 4.34187 23.3424 3.43832 24 2.40133C23.1002 2.81562 22.1467 3.08938 21.1702 3.2137C22.2 2.57802 22.9689 1.5696 23.3301 0.380944C22.3667 0.978787 21.3112 1.39805 20.2102 1.62023C19.5352 0.870042 18.6591 0.348642 17.6958 0.123883C16.7325 -0.100877 15.7264 -0.0184409 14.8086 0.360094C13.8908 0.738629 13.1034 1.3958 12.5491 2.24648C11.9947 3.09716 11.699 4.10198 11.7002 5.13009C11.7005 5.52222 11.7406 5.91309 11.8201 6.2964C9.86193 6.19244 7.94673 5.66146 6.19824 4.7375C4.44975 3.81355 2.90706 2.51734 1.67017 0.932951C1.03857 2.06216 0.844041 3.39963 1.12646 4.67292C1.40889 5.94621 2.14703 7.05958 3.19019 7.78587C2.40849 7.76483 1.64335 7.54673 0.960205 7.15047V7.21302C0.961981 8.39531 1.35469 9.54078 2.07227 10.4569C2.78984 11.3731 3.78843 12.0038 4.90015 12.2431C4.47973 12.3612 4.04547 12.4174 3.61011 12.4099C3.29809 12.4184 2.98622 12.3904 2.68018 12.3265C3.00207 13.3417 3.61624 14.2293 4.43921 14.8684C5.26218 15.5075 6.25391 15.8671 7.28003 15.8987C5.53784 17.3159 3.39082 18.0858 1.18018 18.0859C0.785913 18.0823 0.391898 18.0579 0 18.0129C2.10269 19.4156 4.52744 20.2071 7.02271 20.3053C9.51797 20.4035 11.9931 19.8047 14.1914 18.5712C16.3897 17.3378 18.2313 15.5147 19.5251 13.2904C20.819 11.0662 21.5181 8.52199 21.55 5.92161C21.6 5.64042 21.6 5.34873 21.54 5.06754Z" fill="white"/>
</svg>
