<?xml version="1.0" encoding="utf-8"?>
<!-- Generator: Adobe Illustrator 27.7.0, SVG Export Plug-In . SVG Version: 6.00 Build 0)  -->
<svg version="1.1" id="Layer_1" xmlns="http://www.w3.org/2000/svg" xmlns:xlink="http://www.w3.org/1999/xlink" x="0px" y="0px"
	 viewBox="0 0 1000 1000" style="enable-background:new 0 0 1000 1000;" xml:space="preserve">
<style type="text/css">
	.st0{fill:url(#SVGID_1_);}
	.st1{fill:#FFFFFF;}
	.st2{fill:url(#SVGID_00000108996125716781281880000001836832201232735158_);}
</style>
<g id="USDs_00000089559883611896216370000009862400082916117684_">
	<linearGradient id="SVGID_1_" gradientUnits="userSpaceOnUse" x1="501.3003" y1="944.0416" x2="501.3003" y2="58.559">
		<stop  offset="0" style="stop-color:#FFFFFF"/>
		<stop  offset="0" style="stop-color:#203468"/>
		<stop  offset="1" style="stop-color:#3A53A4"/>
	</linearGradient>
	<circle class="st0" cx="501.3" cy="501.3" r="442.7"/>
	<g id="RiItHy.tif">
		<g>
			<path class="st1" d="M461.1,555.3c0-18.4-0.1-36.8,0.1-55.1c0-2.3-0.6-3.2-2.8-3.8c-12.6-3.3-24.9-7.4-36.2-14
				c-21.3-12.4-33.2-30.9-35.8-55.3c-1.3-12.2-0.9-24.2,3.1-35.9c5.8-17.1,16.9-30.1,31.7-40.2c11.5-7.8,24.2-13.1,37.8-16.1
				c1.6-0.4,2.3-0.9,2.3-2.8c-0.1-9.2,0-18.4-0.1-27.7c0-1.5,0.3-2,1.9-1.9c8.4,0.1,16.8,0.1,25.2,0c1.6,0,1.9,0.6,1.8,2
				c-0.1,8.3,0,16.6-0.1,24.8c0,1.6,0.5,2,2,2c6.1,0.2,12.2,0.6,18.3,1c2.9,0.2,2.9,0.3,2.9-2.5c0-8.5,0-17,0-25.5
				c0-1.4,0.3-1.9,1.8-1.8c8.5,0.1,17,0.1,25.5,0c1.5,0,1.8,0.5,1.8,1.9c0,10.4,0,20.7-0.1,31.1c0,2.1,0.6,2.9,2.5,3.5
				c16.2,5.3,30.6,13.6,42.5,25.9c13.1,13.7,20.9,30,24,48.6c0.8,4.8,1.2,9.6,1.4,14.5c0,1.3-0.2,1.8-1.6,1.8
				c-11.3,0.1-22.6,0.3-33.9,0.5c-1.8,0-1.7-0.9-1.7-2.1c-0.4-11.5-3.3-22.2-10-31.7c-5.6-7.9-13-13.6-21.5-17.9
				c-1.1-0.6-1.6-0.5-1.5,0.9c0,0.5,0,0.9,0,1.4c0,31.8,0,63.7,0,95.5c0,2,0.6,2.7,2.5,3.2c14.4,4,28.2,9.3,40.7,17.7
				c19.4,13.1,31.4,31.1,35.2,54.2c1.1,6.8,0.6,13.7-0.2,20.6c-2.2,19.1-9.4,36.1-22.7,50.2c-11.2,11.9-24.8,19.8-40.1,25.3
				c-4.5,1.6-9.1,3-13.7,4c-1.3,0.3-1.7,0.9-1.7,2.2c0,10.2,0,20.5,0.1,30.7c0,1.6-0.5,2-2,2c-8.3-0.1-16.7-0.1-25,0
				c-1.5,0-1.9-0.4-1.9-1.9c0.1-8.9,0-17.8,0.1-26.7c0-1.5-0.3-2-1.9-1.9c-6.6,0.3-13.2,0.4-19.8,0.1c-1.6-0.1-1.6,0.7-1.6,1.8
				c0,8.8,0,17.5,0.1,26.3c0,1.9-0.6,2.3-2.4,2.3c-8.2-0.1-16.4-0.1-24.6,0c-1.6,0-2-0.5-2-2c0.1-9.9,0-19.8,0.1-29.7
				c0-2-0.7-2.7-2.5-3.2c-22.6-5.8-42.3-16.6-58-33.9c-14.9-16.4-23.4-35.9-26.8-57.7c-0.5-3.3-0.7-6.7-1.2-10
				c-0.2-1.7,0.2-2.3,2-2.4c8.1-0.4,16.1-0.9,24.2-1.3c3-0.2,5.9-0.2,8.9-0.5c1.6-0.2,2,0.3,2.1,1.9c1.1,14.6,5.3,28.1,14.1,40
				c9.1,12.2,21.2,20.3,35.4,25.4c1.9,0.7,1.7-0.3,1.7-1.5C461.1,592.8,461.1,574.1,461.1,555.3z M542.1,565.6c0,5.2,0,10.5,0,15.7
				c0,10.1,0,20.2,0,30.3c0,0.9-0.3,2,1.4,1.4c9.4-3.2,18.1-7.6,25.3-14.6c12-11.7,15.9-26.3,14.5-42.4c-0.8-8.7-5.4-16.1-11.8-22.2
				c-7.8-7.4-17.4-11.8-27.4-15.4c-1.8-0.7-2.1-0.2-2.1,1.5C542.1,535.2,542.1,550.4,542.1,565.6z M490,562c0,5.4,0,10.8,0,16.1
				c0,12.9,0,25.8,0,38.8c0,1-0.3,2.1,1.5,2.1c6.5,0,12.9,0,19.4-0.1c1.9,0,2.4-0.7,2.4-2.6c-0.1-34.6-0.1-69.2,0-103.8
				c0-1.7-0.4-2.3-2.1-2.6c-6.4-1.3-12.8-2.4-19-4.5c-2.1-0.7-2.2-0.7-2.2,1.6C490,525.3,490,543.6,490,562z M460.9,458.5
				c0.1-0.4,0.1-0.6,0.1-0.8c0-27.8,0-55.6,0-83.4c0-1.6-0.6-1.4-1.6-1c-6.3,2.2-12.4,4.9-17.9,8.8c-8.7,6.1-15.4,13.6-17.8,24.3
				c-1.2,5.1-1,10.3-0.6,15.5c0.7,10.2,4.4,19.1,13,25.4C443.6,452.6,452.1,455.7,460.9,458.5z M513.1,472.1c0-0.6,0.1-1.1,0.1-1.6
				c0-32.9,0-65.8,0-98.7c0-1.7-0.7-2-2.1-2.1c-6.3-0.4-12.6-0.7-18.9-1.2c-1.8-0.1-2.3,0.4-2.3,2.2c0.1,31.2,0,62.3,0,93.5
				c0,1.5,0.4,2.2,1.8,2.5c1.8,0.4,3.6,1,5.5,1.5C502.5,469.5,507.6,471.4,513.1,472.1z"/>
		</g>
	</g>
	<g>
		
			<linearGradient id="SVGID_00000114787158627448085560000006605182361187545782_" gradientUnits="userSpaceOnUse" x1="501.3003" y1="992.7053" x2="501.3003" y2="9.8953">
			<stop  offset="0.2208" style="stop-color:#B22335"/>
			<stop  offset="1" style="stop-color:#ED2224"/>
		</linearGradient>
		<path style="fill:url(#SVGID_00000114787158627448085560000006605182361187545782_);" d="M501.3,69.9
			c58.3,0,114.8,11.4,167.9,33.9c51.4,21.7,97.5,52.8,137.1,92.5c39.6,39.6,70.8,85.8,92.5,137.1c22.5,53.1,33.9,109.6,33.9,167.9
			s-11.4,114.8-33.9,167.9c-21.7,51.4-52.8,97.5-92.5,137.1c-39.6,39.6-85.8,70.8-137.1,92.5c-53.1,22.5-109.6,33.9-167.9,33.9
			s-114.8-11.4-167.9-33.9c-51.4-21.7-97.5-52.8-137.1-92.5c-39.6-39.6-70.8-85.8-92.5-137.1c-22.5-53.1-33.9-109.6-33.9-167.9
			s11.4-114.8,33.9-167.9c21.7-51.4,52.8-97.5,92.5-137.1c39.6-39.6,85.8-70.8,137.1-92.5C386.5,81.3,443,69.9,501.3,69.9
			 M501.3,9.9C229.9,9.9,9.9,229.9,9.9,501.3s220,491.4,491.4,491.4s491.4-220,491.4-491.4S772.7,9.9,501.3,9.9L501.3,9.9z"/>
	</g>
	<g id="logo">
		<g>
			<g>
				<path class="st1" d="M578.2,813.2H218.5v-96.7h359.7c51,0,94.1-30.9,94.1-67.6V505.8H769v143.2
					C769,739.5,683.4,813.2,578.2,813.2z"/>
			</g>
		</g>
		<g>
			<g>
				<path class="st1" d="M313,503.3h-96.7V365.8C216.2,260.6,301.8,175,407,175h362.8v96.7H407c-51.9,0-94.1,42.2-94.1,94.1V503.3z"
					/>
			</g>
		</g>
	</g>
</g>
</svg>
