<svg width="24" height="18" viewBox="0 0 24 18" fill="none" xmlns="http://www.w3.org/2000/svg">
<path d="M23.4902 2.52093V2.72921C23.3522 2.21013 23.0897 1.7361 22.7276 1.35163C22.3654 0.967171 21.9154 0.68479 21.4198 0.531244C19.5494 1.01822e-05 12.0181 0 12.0181 0C12.0181 0 4.50698 1.01822e-05 2.61668 0.531244C2.12047 0.675944 1.66833 0.951304 1.30396 1.33078C0.939597 1.71026 0.675201 2.18114 0.536262 2.69793C-0.178754 6.8137 -0.178754 11.0297 0.536262 15.1454V14.9371C0.674181 15.4562 0.936679 15.9303 1.29884 16.3147C1.66099 16.6992 2.11099 16.9816 2.60666 17.1351C4.47696 17.6663 12.0081 17.6664 12.0081 17.6664C12.0081 17.6664 19.5194 17.6663 21.4097 17.1351C21.9075 16.9847 22.3605 16.705 22.7261 16.3223C23.0917 15.9397 23.3579 15.4667 23.4999 14.9476C23.8318 13.0049 23.9991 11.0356 24 9.06243V8.59349C23.9991 6.55331 23.8219 4.51753 23.4701 2.5105L23.4902 2.52093ZM9.62781 12.656V5.06246L15.8988 8.87475L9.62781 12.656Z" fill="white"/>
</svg>
